<?xml version="1.0" standalone="no"?><!DOCTYPE svg PUBLIC "-//W3C//DTD SVG 1.1//EN" "http://www.w3.org/Graphics/SVG/1.1/DTD/svg11.dtd"><svg t="1716627746677" class="icon" viewBox="0 0 1024 1024" version="1.1" xmlns="http://www.w3.org/2000/svg" p-id="17977" xmlns:xlink="http://www.w3.org/1999/xlink" width="64" height="64"><path d="M173.1 598.9l-7.6-16.2 175.7-82.6 47.7 46.3c5.9 11.1 3 19-8.6 23.8l-135.5 63.7 31.3 66.5c2.1 7.4 6.3 8.9 12.5 4.5l143.2-67.3 6.8 14.5-179.9 84.6c-11.7 6.2-19.6 4-23.9-6.5l-41-130.6 28.5-13.4 14.8 31.5 98.9-46.5c5.9-2.1 7.2-6.1 3.7-12.1l-14.8-31.5-151.8 71.3z m355.8 10.7l-2.4-5.1-65.8 37.2-6.8-14.5 7.3-4.5-51.1-135.2-17.9 8.4-7.6-16.2 106.6-50.1 7.6 16.2-14.3 6.7 69.1 114.3 2.6-1.2 8 17-2.6 1.2 4 8.5-36.7 17.3z m-92.4-134.5l11.6 24.7 23.9-11.2-11.6-24.7-23.9 11.2z m19.3 40.9l11.6 24.7 23.9-11.2-11.6-24.7-23.9 11.2z m40 85.2l22.7-13.8-19.6-41.8-23.9 11.3 20.8 44.3z m6.4-157l-7.6-16.2 83-39 6.3 5.4c0.8 1.7 1.4 4.5 1.9 8.5 0.8 3.1 1.3 5.7 1.5 7.6l2.3 53 67.2 86-34.1 16-37.1-50.2 15 60.6-34.1 16-17.7-109.3-43.4-29.6 35-16.4 17.2 19-3.1-26.6c-0.1-6.2-2.2-8.3-6.2-6.5l-46.1 21.7z m148.5-80.3l7.6 16.2-47.9 13.2-7.6-16.2 47.9-13.2z m-25 61.8l-7.6-16.2 48.3-12.3 7.6 16.2-48.3 12.3z m89.1 96.5L679 539.1l-23.1-106.8 22.2-10.4 36.7 100.3z m15.3-7.2l-44.3-137.4 32.9-15.4-15.2-32.4 45.2-21.2 15.2 32.4 31.1-14.6 73.3 106.1c6.2 10.3 3.6 17.4-7.7 21.3L836.7 465l-22.4-47.7L747 449l22.4 47.7-39.3 18.3z m-42.9-177.6l19.1 27.4-33.2 15.6-3.9-34.6 18-8.4z m28.8 45.8l5.6 11.9 67.3-31.7-5.6-11.9-67.3 31.7z m13.2 28.1l10 21.3 67.3-31.7-10-21.3-67.3 31.7z m36.4-110.8l16.7-7.9 25.4 24.5-33.2 15.6-8.9-32.2z m-33.7 337.6l6.5-0.8c-5.9-1.7 2-2.5 1.1-6l-6.3 3.7c2.2 0.5 0.1 2-1.3 3.1M590.5 753.4c-0.2 0.1-0.5 0.3-0.8 0.4 0.5 0 0.8-0.2 0.8-0.4m-15.7-5.8c0.3 0.2 0.5 0.3 0.7 0.5-0.1-0.2-0.3-0.4-0.7-0.5m81.6-443.1c-0.5 0.1-1 0.3-1.3 0.4 0.5-0.1 0.9-0.2 1.3-0.4m3.9-9.6c1.3 0.4 2.7 0.6 4.3 0.6-1.8-0.6-3.2-0.7-4.3-0.6m131.2-70.4l0.6-0.6c-0.4 0.2-0.6 0.4-0.6 0.6M696.7 255c-3.5 2.8-13.4 2.2-6.6 7.3 5.4 0.2 6.7-3.4 6.6-7.3m-122.8-80.6l1.1-1.7c-0.9 0.1-1.4 0.6-1.1 1.7m13.9 26.9c-0.1-0.2-0.3-0.3-0.5-0.5 0.1 0.2 0.3 0.4 0.5 0.5m107.7 47c0.5 1.9 1.1 4.4 1.1 6.7 1.7-1.3 2-3.2-1.1-6.7m-114.4-75.5c-0.7-1.4-2.1-3.3-4.3-2.9l-1.8 2.9c1.5-0.3 4.2 0.5 6.1 0m11.2 32.5c1.9-2.8-2.8-3-4.5-4 1.3 1.6-0.1 4.3 4.5 4m14.3 10.1l-0.8 2.4 3-3.7z m-12.1-15.3c1.4 1-0.8 3.3 0.6 5.3 0.8-1.4 5.9-4.6-0.6-5.3m79.4 46.3L668 251c2.2-0.4 7.3-1.6 5.9-4.6m-68.7-58.6c-0.1-0.7 0.1-1.4 0.4-2-1.2 1.3-1.1 1.8-0.4 2M123.4 371.1c0.5-0.3 1-0.6 1.5-0.8-0.8 0-1.2 0.4-1.5 0.8m-8.6 51.9c-0.7 0.7-1.5 1-2.4 1.3 0.9-0.2 1.8-0.5 2.4-1.3m-10.3 37.7c0.1 0 0.1 0.1 0.2 0.1 0-0.1-0.1-0.1-0.2-0.1m17.5-38c0.3-1.8 0.7-3.6 1.1-5.5l-4.3 0.1c0.1 1.9-2.6 5.6 3.2 5.4m-1.9-9l-0.3 0.6c0.2-0.1 0.3-0.2 0.3-0.6m231.2 472c0-0.4 0-0.9-0.1-1.3-0.1 0.4 0 0.9 0.1 1.3m464.9-189.3l-4.6 6.6c3 0.8 9.9-4.3 4.6-6.6m-696.6-318l2.1 1.9c0.1-0.7-0.5-1.3-2.1-1.9m299-105.1c0.3 0.2 0.6 0.3 1 0.4l-1-0.4z m-119.2 9.1c0.5-0.6 0.3-1.3 0.1-2-0.6 0.5-0.7 1.2-0.1 2M301.7 277.3c-3.3 0.8-2.7 1.9-2.2 3.1 1.9-1.9 9-2 2.2-3.1m-110 122.4c-0.7 2.2-6.5 2.7-9.2 3.5l8.7-0.1 0.5-3.4zM228 414c-3.8-3.6-10.9-1-13.7 1.6l-2.2-1.2c0.4 2.6 0.8 5.3 1.2 7.7 0.9-6.4 25.4 3 14.7-8.1m-41 6.5v0.9c0.2-0.3 0.1-0.6 0-0.9m0 0c-0.1-1.4 0-2.8 0.5-4.6-4.3 0.5-1.1 2.7-0.5 4.6m4.7-20.8c0-0.2 0.1-0.3 0.1-0.5l-0.1 0.5z m368.8 443l-4.1 3.2 5.9 1.9c-0.5-1 3.2-4.5-1.8-5.1m173.9 31c-0.8 0.4-1.9 0.4-3 0.6 0.1 0 0.3 0.1 0.4 0.1 1.3 0.4 2-0.1 2.6-0.7m-99.2 32l-1.2 0.6c0.5-0.2 0.8-0.4 1.2-0.6M572 919.9l5.4-4.2-1.5-0.9z m159.4-45.5c-0.5-0.2-0.9-0.4-1.1-0.6l0.1 0.8c0.3-0.1 0.6-0.1 1-0.2m3.8-1.5c-0.3 0.2-0.5 0.5-0.8 0.9 0.4-0.2 0.7-0.5 0.8-0.9M563.1 848l-0.8-0.2c0.1 0.1 0.4 0.2 0.8 0.2m-37.5 2c-4.8-6.7-4.6-13.1-5.8-19.4-5.4 5.2 2.2 10.7-4.6 17l5.9 0.7c-5.7 1.3-8.2 6.3-8.8 8.8 3.8 2.3 7.3 0.6 11.6 0.4-1.6-1.9-3.8-2.3-5.9-1.7-2.5-4.3 5.6-2.3 7.6-5.8m-70-32.1l-1.7 3.2c0.6-0.8 1.3-2 1.7-3.2m0.2-0.3c-0.1 0.1-0.1 0.2-0.2 0.4l0.2-0.4zM292.3 274.5l-0.7 1.4 0.7 0.3z m513.1-39.9c-0.3 0.5-0.7 1-1.1 1.4 0.2-0.1 0.6-0.6 1.1-1.4m0.5-0.9c-0.2 0.3-0.4 0.6-0.5 0.9 0.2-0.3 0.4-0.6 0.5-0.9m-148 572.4c-0.7 0.1-1.3 0.3-1.8 0.4l0.4 0.6 1.4-1zM295.4 417.3c-3.6 0.5-4.4-2.2-6.5-0.2 8.1 2.3-7.5 5.7 4.1 6 7.7-3.5-7.5-3.3 2.4-5.8m136.7-134.8l-0.9 6.4 3.8-6.3z m373-60l3.1-0.8c-1.7-0.3-2.6 0.1-3.1 0.8m-290.8 50.9c-0.3 0.1-0.6 0.1-1 0.2 0.4 0.1 0.7 0 1-0.2m100.6-84.9c0.5-0.3 1.1-0.6 1.5-0.8 0 0-0.1 0-0.1-0.1l-1.4 0.9z m-315.7 69.6c-7.2-2.3 4.5-6.5 3.2-11.5-7.2-1.3 3-4.8-3.4-7.5l-3 1.8c5 1.7-2.3 6.3-3.9 10.1 9.5 1.9-3 5.7 7.1 7.1m356.9 594.6c-0.2 0.2-0.4 0.5-0.6 0.7 0.3-0.1 0.5-0.4 0.6-0.7m-151.7-96.6c-0.7 1.3-0.2 1.9 0.6 2.3 0.2-0.7 0-1.5-0.6-2.3m-18.4-3.6l2.3-3.7c-1.1 1.4-2.1 2.6-2.3 3.7M288.1 426.4c0.9-0.2 1.7-0.6 2.2-1l-2.2 1z m218.4-246.1l0.6-0.3-0.6 0.3z m5.2-4c-1.4-1 2.9-1.8-0.7-2.3-3.4 0.3-1.1 4.5-3.8 6l11.1-4.9-6.6 1.2z m-13.9 8.4l5.8-2.6-5.7-0.2z m33.4-19.2l-3.5 0.5c2 0.5 4.1 2 3.5-0.5" fill="#C21124" p-id="17978"></path><path d="M526.2 165.8c0 0.1 0.1 0.3 0.1 0.4l1.5-0.2c-0.6-0.2-1.2-0.3-1.6-0.2m-4.6-63.6l-4.2 2.6 6.4-1.4zM295.2 277.5l-2.9-1.3-0.1 3zM495.7 159c-2.1-0.6-3.6 1.5-5.8 2l6.4 4c4.4-4.2-3.6-1.7-0.6-6m112 31.1c2.5-2.9-1.1-1.9-2.5-2.3 0.1 0.9 0.8 1.7 2.5 2.3M722 165.2l-2.5-2.8c0.1 1.1 0.7 2.1 2.5 2.8m-234.9 12.2c4.3-1.7 0.7-5-3.6-5.1-2.2 1.3-0.1 5.5 3.6 5.1m-14.2 25.2c1.5-3 9.6-6.3 1-9.8 2 3.8-8.9 6.9-1 9.8m62.4-101c-0.2-0.3-0.4-0.5-0.6-0.7 0.1 0.3 0.3 0.5 0.6 0.7m-55.1 77.3c-1.9 0-3.2-1.9-4.5-2.9l-1 11.1c1.5-2-0.3-7.6 5.5-8.2m0 0h0.5-0.5m7.3 3.1l2.4-1.7c-1.2 0.7-2 1.3-2.4 1.7m7.4 5.3c-2.2 0.4-2.9-4.7-5-1.6 1.8-2.6-4.3-1.7-2.4-3.7l-4.8 3.5 0.7-0.4c2.1 2.3 7.2 5.7 11.5 2.2m-95.3 558.4l2.8-2.1-3.8-2.3zM205.5 318.4c-0.5 0.1-1 0.2-1.4 0.3 0.4 0 0.9-0.1 1.4-0.3M340 908.9l2.7-0.8c-1.3 0.1-2.2 0.4-2.7 0.8m-47.9-736.2c-0.7 0.7-1.9 1.4-3.3 2.1 1.2-0.2 2.8 0.1 4.7 1l-1.4-3.1zM88.2 499.5c0.6 0.4 1.7 0.6 3.5 0.3-1.6-0.5-2.7-0.5-3.5-0.3m688.7-316.1l-0.3 0.5c0.1-0.1 0.3-0.3 0.3-0.5m-491.2-6.9c-2.1 1.3-3.7 2.9-3.3 5.3 1.1-1.3 1.8-3.7 3.3-5.3m552 53.8c-1.1-0.6-1.4-1.1-1.2-1.6-0.4 0.6-0.2 1.1 1.2 1.6M390.1 182c0.1-0.3 0.2-0.7 0.2-1.1-0.2 0.4-0.3 0.8-0.2 1.1m-12.7 20.5l0.7-0.5c2.8 5.2 1.3 6.2-1.7 10.1 8.3-0.3 10-5.1 14.6-7.7 0 0.1 0 0.1 0.1 0.2v-0.2c1.8-1 4-1.6 7.3-1.5 4.3-2.8 1.3-4.5 0.2-5.4-0.1 5.9-8.1 0.5-7.8 5.2-1.9-6-7.4 0.2-6.5-9.6l2.8 2.2c-0.6-2.6 2.3-4.5-2.8-4.2-0.8 0.5-3.7 2.4-5.1 0.3 6.6-2.3 5.9-5.9 14-8.2-1.6 0.3-2.8-0.2-3-1.1-0.4 1.4-1.6 2.2-2.8 3 0.8-1.5-8.5-6.6-13.5-7.3-1.1 3.4-2.1 6.9-3.2 10.2 1.5-1 3.6-1.4 6.5-0.2l-8.1 4.2c-0.2 5 13.5 7.1 8.3 10.5M819 662.6l-2.6 4 4.9-2.7zM285.7 176.5c1-0.6 2-1.1 3-1.7-1.2 0.2-2.2 0.8-3 1.7M406 216.9l8.7-1.6c-4.3-1.2-3.6-2.7-7.8-4.9-1.6 3 5.6 5.3-0.9 6.5m-95.8 571.4l-2 2.6 6.5-0.8z m106.1-578c1.5-1-0.7-2.6-0.6-3.6l-3 1.9c-0.8 1.6 2.1 1.7 3.6 1.7m53.4-101.6c-0.6-1-0.2-2 0.7-2.9-1 0.5-1.6 1.2-0.7 2.9m-43.8 695.5c7-4.3-5.2-2.2-5.5-6.2-1.8 5.6 5.2 2.3 5.5 6.2m-16.7 21.3l0.3 4.3c0.4-1.3 0.4-2.7-0.3-4.3m-50.5-4.1c0.7 0.5 0.2 3 1.7 3.8-0.8-1.3 1.9-4.4-1.7-3.8m350.7-66.2l1.8-4.5-5.7 1.3c1.5 0.8 2.4 2.3 3.9 3.2m-509-431.8l2.2-1.3-3.7 0.3 5.8 3.9z m279.2 611.8c0.4 0 0.7-0.1 1.1-0.2-0.4 0-0.8 0.1-1.1 0.2M207.3 361.8c0.5 0.3 1.1 0.7 1.8 1 0-1.2-0.8-1.3-1.8-1m-60.4-38.2l-4.4 0.8c2.2 1.5 0.7 4.3 5 5.3 5.9-1.7-6.4-2.5-0.6-6.1m57.2-4.9c-3.9 0.3-1.8-4.6-5.8-0.5 1.7 1.1 3.9 0.9 5.8 0.5m534.1 464l4.1-2.2-3.7-1.2z m113.3-189.5c1.3 0.6 0.8 1.8 0.9 2.6l5.4-7c-6.2-0.2-0.8 5.8-6.3 4.4M425.6 114c-6.5 3.8-2.8-9.1-10.1-1.4 2.8 1.2 5 5.1 10.1 1.4m425.9 479.2c-0.2-0.1-0.4-0.2-0.7-0.2 0.3 0.1 0.5 0.1 0.7 0.2m-0.1-26l-8-1.1c0.2 2.9 3.2 4.7 6.9 6l1.1-4.9z m-8 35.3c-1.3 2-2.6 5 0.4 5.8 0.6-1.4 2.6-4-0.4-5.8M282.2 182l-2.6-0.1c1.2 0.9 2 0.7 2.6 0.1m34.6 621l5.5-4.2-5.1-0.2z m505.1-185.5c1.6 2.9 3.6-0.7 5.1 0.3l-2.4-4.3-2.7 4z" fill="#C21124" p-id="17979"></path><path d="M282.5 181.7c-0.1 0.1-0.2 0.2-0.2 0.3h0.3c-0.1-0.1-0.1-0.2-0.1-0.3m116.1 15.7v-0.7c-0.7 0.2-0.5 0.4 0 0.7m434.6 415.8l2.8-2.1-3.7-1.3z m-66.9-51.1l-7.4 3c-1.1 5.4-2.5 10.8-3.9 16.1 0.5 0.1 1.1 0.2 1.7 0.4-0.7 0.1-1.4 0.1-1.9 0.1-9.1 32.1-24.4 62.4-45.3 88.6l1.4 0.1-2.1 0.8c-17.4 21.7-38.5 40.7-62.9 55.9v0.1l-0.1-0.1c-12.1 7.6-25.1 14.2-38.8 19.7-5 2-10.1 3.9-15.1 5.6-0.3 0.3-0.7 0.6-1.3 0.9-0.1 0.2-0.3 0.3-0.8 0.4 0.3-0.1 0.6-0.2 0.8-0.4v-0.5c-5.1 1.7-10.2 3.2-15.3 4.5l-1.7 1.6c-0.6-0.3-1-0.5-1.3-0.8-19.6 4.8-39.4 7.1-58.9 7.2-0.3 1.5-0.5 3-0.6 4.2l3.6 0.3c-1.1 0.7-1.9 1.5-2.6 2.2 31.9-0.1 64.4-6.2 95.8-18.9 34.1-13.8 63.7-34.1 87.9-58.8-1.9 0.6-3.9 1-3-1.9 1.7 0.3 3.3 0 4.4 0.5 3.3-3.5 6.6-7 9.7-10.7l-1 0.2c0.6-0.3 1.1-0.6 1.6-0.9 0.9-1.1 1.9-2.2 2.8-3.3 0.1-0.9-0.5-1.9-2-2.8l2.8 1.7c27-33.3 45.4-72.9 53.5-115m-33.1 73l6.3-3.7c0.9 3.4-7 4.2-1.1 6l-6.5 0.8c1.4-1.2 3.5-2.7 1.3-3.1m-309.7-533c3.6 0.6 5.8-2.1 5.1-4.9l-6.5 1.5c0-0.1 0.1-0.2 0.2-0.2-6.4 1.4-12.9 3-19.3 4.7 0 1.6-0.2 3.2-0.6 4.8 7.3-2 14.6-3.8 21.9-5.4l-0.8-0.5z" fill="#C21124" p-id="17980"></path><path d="M514.8 758.7c19.7-0.2 39.6-2.7 59.2-7.8 0.9-1.1 1.7-2.1 1.4-2.7-0.2-0.2-0.4-0.4-0.7-0.5 0.4 0.1 0.6 0.3 0.7 0.5 0.6 0.6 0.8 1.3 1 2 9.4-2.5 18.7-5.7 28-9.4 71.2-28.8 121.4-87.2 142.4-155.3-0.6-2.4-4.4-1.5-3.9-4.8 0.8-1.2 4.7-2.4 6.3-3.7 0.1-0.5 0.3-1.1 0.4-1.6-0.2-0.3-0.7-0.5-1.3-0.8 0.6-0.1 1.1-0.1 1.5 0 0.6-2.1 1.1-4.3 1.6-6.5l-10.1 4.1c-18 70.1-67.9 131.1-140.2 160.3-26.4 10.7-53.5 16.2-80.4 17.1 0.1 0.6 0.3 1.1 0.8 1.6l-3-0.9c-1.3 1.6-2.6 4.8-3.7 8.4M365.4 127.1c2.8 4.4 7.2-2 7.2 0.2-4.4 4.8-6.7 0.6-9.1-1.9-1.5 0.6-2.9 1.1-4.4 1.7 1.6 3.1 4.1 6 6.8 8.1 1.6-10.8-0.7 0.5 3-4.2-0.2 3.1-0.4 6.1-0.6 9.2 29-11.2 58.5-18.8 88-23l-0.4-0.2 3.6-3.9c0.3 1.2 0.6 2.3 0.8 3.5 2.1-0.3 4.2-0.5 6.3-0.8-0.3-0.2-0.5-0.5-0.6-0.8 0.7-2.8 6.6-5 10.2-5.5l-1.4-4.6c-0.8 0.6-3.1 0.5-4.4 1-0.8 0.9-1.2 1.8-0.7 2.9-0.9-1.7-0.4-2.5 0.7-2.9 1.8-2 5.8-3.8 6.7-6.8-15.3 1.3-30.7 3.5-46 6.6 0.2 0.7 0.5 1.5 1.1 2.2l-6.5 0.4 2.8-2.1c-2.7 0.6-5.3 1.1-8 1.7-1.1 0.9-3 1.4-4.4 1-0.9 0.2-1.7 0.4-2.6 0.6-0.5 0.7-0.9 1.4-1.4 2.1l-1.4-0.8c0.3-0.2 0.4-0.4 0.5-0.7-4 1-8 2.1-12 3.2-0.5 0.5-1.1 1-1.7 1.5l1.2 14.2-14.5 3.9-1.3-7.7-7.2 0.9 2.2-4.8c-0.2-0.4-0.5-0.7-0.7-1-3 1-6 2.1-9 3.2l-2.8 3.6z m60.2-13.1c-5.1 3.8-7.2-0.2-10.1-1.4 7.2-7.7 3.5 5.1 10.1 1.4m12.9-18.8c-2 1.5-4.7 3.4-6.3 5.7 13.1-2.6 26.3-4.5 39.4-5.8l-0.3-0.1c4 0.1 7.7-2.3 9.3-5.2-14 1.2-28.1 2.9-42.1 5.4M795 208.1c-3.7-3.5-7.5-6.8-11.4-10.1-0.3 4.6-1.4 9.9-4.1 14.6 7.9 1.3 5.9 3.6 3.9 5.9 4.4 4.1 8.8 8.2 13.1 12.5 0.2-1.7 0.5-3.5-2-5.3l5 2.7-0.6-5.6c-2.3-0.1-5.5 0.4-6.7 1.1l-0.6 0.6c0-0.2 0.2-0.4 0.6-0.6 3.4-4.2 1.4-10.3 2.8-15.8M772.8 189l-0.3 0.3c0.3 0.6 1.1 0.9 2.1 1.1-0.6-0.4-1.2-0.9-1.8-1.4m-181.7-88.4c1.3-0.8 1.4-0.9 2.7-0.9l-0.1-3.1c-14.8-2.9-29.7-5-44.8-6.3-1.2 0.7-2.1 1.5-2.7 2.2-0.2 0.7-0.4 1.4-0.2 2 15.2 1.2 30.2 3.2 45.1 6.1" fill="#C21124" p-id="17981"></path><path d="M530.4 93.5c0.4-1.1 0.9-2.1 2.4-2.7-0.6 2.2 2.9 0.8 4.4 0.8 0.7 1.6-1.2 1.8-3.2 2.1 4 0.2 7.9 0.5 11.8 0.8-0.3-0.6-0.1-1.3 0.4-2 0.2-0.8 0.5-1.7 0.4-2.4-1.7-0.1-3.5-0.3-5.2-0.4v0.1c-1.9 0.6-3.6 0.2-5.1-0.4-11.9-0.7-23.9-0.8-35.9-0.5-2.3 1.3-4.7 2.8-6.4 4.7 12.1-0.6 24.3-0.6 36.4-0.1m26-7l1 0.1c-0.3 0-0.6-0.1-1-0.1m-69 7.4c0.9-0.1 1.8-0.1 2.8-0.2 0.3-0.4 0.7-0.7 1.2-0.9 0.7-1.1 1.3-2.3 1.7-3.7-2.3 0.1-4.6 0.2-6.9 0.4-0.4 2-0.4 3.7 1.2 4.4m-115.3 23.5c-0.5-0.2-1-0.3-1.6-0.5l-13.1 5c0 0.3 0.1 0.6 0.1 0.9 4.9-1.9 9.8-3.7 14.6-5.4M202.6 229.5l-1.7 1 0.1-2.9c-1.1 1.6-2.6 1.5-4 1.4-0.9 1-1.8 2-2.6 3 1.2 1.4 2 2.4 3 3.3 1.7-1.9 3.4-3.9 5.2-5.8m62.1-60c-1.9 2.1-2.1 4-1.9 5.8 2.6-1.9 5.3-3.8 7.9-5.7 0-1.8 0.1-3.6-0.1-5.4-2.5 1.7-5 3.5-7.5 5.3 0.6 0.1 1.1 0 1.6 0m-36.2 40.2c-9.8 9.2-19.2 18.8-28 28.9l2.4 0.4c-1.4-0.2-2.3 0-3 0.3-1.9 2.2-3.8 4.3-5.6 6.5-0.9 8.5 0.9 15 1.6 22.8 15.2-19.7 32.3-38 51.1-54.7l-18.5-4.2z m414.8 76.1c0.1-0.4-0.5-0.7-1.9-1.1 0.6 0.4 1.3 0.8 1.9 1.1M273.8 459.3l10.1-4.1c15.7-61.1 55.6-115.2 113.4-147.5l-5.1-0.6c2.2-0.2 0.2-3.5-0.1-6.7-51.1 28.8-88.7 74.2-108.5 126.4 1.5 0 3.1-0.1 4.5-0.4l2.2-1c-0.5 0.4-1.3 0.8-2.2 1l-4.8 2.2 3.1 2.1-4.6 1.2c-3.2 8.9-5.9 18.1-8 27.4m15.1-42.2c2.1-2 2.9 0.7 6.5 0.2-10 2.5 5.3 2.4-2.4 5.9-11.6-0.4 4-3.8-4.1-6.1m-40.8-114.9l-0.7-2.7-3.4 1.2c0 1.1 2.2 1.2 4.1 1.5m33.1-125.4l-9.6-2.3c-2.7 1.9-5.4 3.9-8 5.8 0 0.8-0.2 1.5-0.6 2.3 2.8 2.1 3.4 5.7 8.5 5.4-4.7 3-5 6.1-4.7 9.4 12.5-9.7 25.8-18.8 39.6-27.1 2.3-7.1-2.1-14.2 1.7-19-6.5 3.7-12.9 7.5-19.2 11.5l7 2.3c-1.5 1-7.9-1.9-10.9 4.2l5 1.7-13.1 3.6 4.3 2.2z m1.3 4.9c-0.5-2.3 1.2-3.9 3.3-5.3 0.8-0.8 1.7-1.5 3-1.7 1.4-0.7 2.7-1.4 3.3-2.1l1.4 3.1c-2-0.9-3.5-1.2-4.7-1-1 0.5-2.1 1.1-3 1.7-1.6 1.7-2.3 4.1-3.3 5.3v0.3h-0.3c-0.7 0.6-1.4 0.8-2.6-0.1l2.6 0.1 0.3-0.3" fill="#C21124" p-id="17982"></path><path d="M394.4 306.8l3.2 0.8c0.4-0.2 0.7-0.4 1.1-0.6 0-0.6-0.2-1.1-0.7-1.4l1.4 1c1.8-1 3.5-1.9 5.3-2.8 0.7-2.5 0.5-5 2.8-6.3 1.4 1 3.6 1.5 5.7 2.1l-0.1 0.2c3.6-1.7 7.2-3.3 11-4.8 14.6-5.9 29.5-10.2 44.4-13.1-0.1-0.2-0.1-0.3-0.2-0.5l1.5 0.3c28-5.2 56.2-5.1 83.4-0.4 0.7-1.1 1.2-1.8 3.4 0.4 0 0.1-0.1 0.2-0.1 0.3 1.4 0.3 2.8 0.5 4.1 0.8l1.1-3.3c2.6 1 1.6 2.4 0.6 3.6 26.2 5.7 51.3 15.8 74.1 29.8l5.3-2.2c0.1-1.4 0.4-3.1 0.4-4.8l-1.5-0.9-3.7 0.2c-0.3-1.1-0.4-2-0.3-2.5-35.7-20.9-76.5-32.7-118.3-33.7 0.2 2-1 4-3.9 4.6-0.3 0.2-0.6 0.3-1 0.2 0.3 0 0.7-0.1 1-0.2 1.2-0.7 2.1-3 2-4.7-31.7-0.5-64 5.2-95.2 17.8-0.7 3.7-6.5 5-11 6.5l-0.3 1.2-0.1-1.1c-1.6 0.6-3.1 1.2-4 1.9 0.1-0.8 0.3-1.4 0.6-2.1-4 1.9-8 4-11.8 6.1 0.4 2.4 1.5 5.4-0.2 7.6m37.7-24.3l2.9 0.1-3.8 6.2 0.9-6.3zM605 143.1l-2.5 2.8 2.9-1.4z m-300.2 5l-5.6-1.5c0.6 1.7 0.6 3.2 0.3 4.6 1.7-1 3.5-2 5.3-3.1m409.2 42h0.7v-0.5l-0.7 0.5z m-362.3-68.3l-7.3 3c-1.2 1.7-2.1 3.3-3 4.9 3.1-1.4 6.2-2.7 9.3-4 0.3-1.4 0.6-2.7 1-3.9m-35.5 42.9c4.8-2.7 9.7-5.3 14.7-7.9v-0.7c0.4 0.1 0.7 0.1 1 0.2 2.1-1.1 4.3-2.1 6.4-3.2 0.7-1.8 1.3-3.8 5-4.4l-4.3-3.3c6.5-2.4 5.2-7.6 7.5-12.5l-2 0.2c-2.2 1-4.3 1.9-6.4 2.9-2.9 6.1-5 11.5-10.8 19.4-4.4-0.1-7.4 9.1-16 4.6 8.6 4.5-0.8 3.6 0.6 6.7l4.3-2z m268.4 1c1.3-0.7 2-1.9 2.8-3.1l-2.8 3.1z m26.8 73.3l3.5-32.9 28.2-17.4-9.6-4.3c-1.3 2-1.5 4.3-0.5 7.9-5.8-1.2-2.1-4.4-11.6-4.2l-0.1 4.8c0-1.9-2.1-3.4-4.9-5.4-0.5 0.2-1 0.5-1.5 0.8l1.5-0.9s0.1 0 0.1 0.1c1.5-0.8 2.6-1.3 2.1-2.4l-3.6 0.4 4.4-4.7c0.8-5.2-10.8-1.7-9.3-7.4 1 0.3 1.9 0.3 2.5 0.2l-0.9-3.8c-5.4-2.7-6.9 3-11 3.7 4.3 6.7-3.7 10.8-3 17.9-2.2-1.5-7.2-0.2-4.3-3l1.4 1c2.2-2.3-2.1-9.1 5.2-10.7-8 0.2-1.4-5.7-4.3-8.6-5 1.3-11.5-6.8-13.7-0.8-1-0.7-2.6-1.3-3.1-2.2l-28.9-2.2 16.5 28.7-12.6 30.6 32.4-6.8 25.1 21.6z m-5.9-53.2c-0.3 0.6-0.5 1.3-0.4 2 1.4 0.4 5-0.5 2.5 2.3-1.6-0.6-2.3-1.4-2.5-2.3-0.6-0.2-0.7-0.7 0.4-2m1.1 29.6l2.2-1.4-3 3.7 0.8-2.3z m-12.1-15.3c6.5 0.7 1.4 3.9 0.6 5.3-1.3-1.9 0.9-4.3-0.6-5.3m-6.7 1.2c1.7 1 6.4 1.1 4.5 4-4.6 0.3-3.2-2.4-4.5-4-0.2-0.1-0.4-0.3-0.5-0.5 0.2 0.2 0.4 0.3 0.5 0.5m-13.9-26.9c-0.3-1.2 0.2-1.6 1.1-1.7l1.8-2.9c2.1-0.4 3.6 1.5 4.3 2.9-1.8 0.5-4.6-0.3-6.1-0.1l-1.1 1.8z m26.7-26.4l-1.5 1.7c0.8 0.1 1.4-0.2 1.5-1.7m-8.6 9.5l-2 2.2c1-0.6 2.3-0.9 4.2-0.7-1-0.5-1.7-1-2.2-1.5m-236.5 59.9c1.9-2.6 0.4-6.6-2.8-9 6.5 1.8 5.2-3.3 7.3-4.7-4.3-1.2-1.5 2-5.8 1.8l5.2-4.3c2.8 3.2 7 10.5 8.3 14.5-3.6-1.7-4.3-0.2-4.4 2.8 2.2-0.4 4.3 0.2 5.1-1.3-0.1 2.4-2.2 3.4-5.2 3.6l5.8 2.5 8.1 32.1 22-24.7 29.1 2c0-1.4 0.2-2.8 1.5-3.7l-14.4-24.5 12.3-30.7-32.3 7.1-25.4-21.2-3.3 32.9-28 17.6 16.9 7.2z m57.2-8.7l3-1.9c0 1 2.1 2.6 0.6 3.6-1.5-0.1-4.4-0.2-3.6-1.7m-5.8 1.7c4.3 2.2 3.5 3.7 7.8 4.9l-8.7 1.6c6.5-1.2-0.7-3.5 0.9-6.5M369 191.9l8.1-4.2c-2.9-1.1-5.1-0.7-6.5 0.2 1.1-3.3 2.1-6.8 3.2-10.2 5 0.7 14.3 5.8 13.5 7.3 1.2-0.8 2.4-1.6 2.8-3-0.1-0.3 0-0.7 0.2-1.1 0 0.4-0.1 0.7-0.2 1.1 0.2 0.9 1.4 1.5 3 1.1-8 2.3-7.4 5.9-14 8.2 1.4 2.1 4.3 0.2 5.1-0.3 5-0.3 2.1 1.6 2.8 4.2l-2.8-2.2c-0.9 9.8 4.6 3.6 6.5 9.6-0.3-4.7 7.7 0.7 7.9-5.2-0.4-0.4-0.6-0.6 0-0.7v0.7c1.1 0.9 4.1 2.7-0.2 5.4-3.3-0.1-5.5 0.5-7.3 1.5v0.2c0-0.1 0-0.1-0.1-0.2-4.6 2.5-6.3 7.4-14.6 7.7 3-3.9 4.5-4.9 1.7-10.1l-0.7 0.5c5.2-3.3-8.5-5.4-8.4-10.5m334.3 610.3c-1.7-0.3-3.3 0-4.6 1.1l-0.4 5.1 7.3-4.2c-0.3-0.5-0.9-1.2-2.3-2m-3.4-14.2c2.1-0.2 3.8-0.9 3.6-3.5l-3.4 0.4-0.2 3.1z m57.8-106.4l-3.3 2c0.8 0.5 2.6 0.3 4.5 0.8-0.5-1.1-0.9-2-1.2-2.8" fill="#C21124" p-id="17983"></path><path d="M799.5 662.1l-25.2-21.4-3.5 32.9-10.7 6.6c0 2.6-0.6 5.2-2.4 7.3 3.7 1.3 11 1.9 9.1 5.4-3.8-2.2-8.9-2.5-13.1-1.3-0.4 4.4 5.3 3.2 9.6 3-3 0.4-3.6 2-4.8 3.4l13.9 6.2c1.7-1.8 2.5-4.3-0.1-5.2 11.9-6 0.1 12.2 12 6.3-2.2-0.4 1.4-1.1 0.7-1.5 1.5-0.1 2.1-0.6 3.6 0.3-3.6 0.7-1.1 5-5.7 2.3 0.2 2.9 2.6 5.3 5.5 6.1 0.7-0.5 0.6-1.5 1.3-2l1.7 3.8-3.7-1.3c2.9 0.8-5.9 9.6 2.8 9.2l-7.2 0.3c3 1.8-1.1 5-1.6 7.5 2.2-1.7 3.4-0.5 4.5 0.6l16.7-18.5 33 2.5-16.5-28.7 12.6-30.6-32.5 6.8z m12.1 40.9l4.6-6.6c5.3 2.3-1.6 7.4-4.6 6.6m7.4-40.4l2.3 1.4-4.9 2.7 2.6-4.1z" fill="#C21124" p-id="17984"></path><path d="M756.2 687.5c-1.1-1.1-2.1-2.4-2.5-3.4l-6.6 4.1c0 1.1 0.3 2.1 1.4 3.1 2.8-1.1 8.7-0.4 7.7-3.8m-33 37.5c1.2 0.3 3.2 0.5 5 0.4l-6.3-10.2-1.1 2.4c0.1 3.4 6.1 4.5 2.4 7.4m30.6 19.9l-6.1-0.7c1.3 1.4 3.8 1.4 6.1 0.7m-44.9-0.6c5-1.8 5.6-6.8 5.1-11.4l-5.1 11.4z m8.2-18.3l-1.7 3.7 1.6 1c2.7-0.5 1.7-3.2 0.1-4.7m-62 42.3l-11.4 11.8c0.4-0.2 0.9-0.5 1.7-0.7 0.9 0.2 0.3 0.9 1.2 1.2l3.1-4.1c0.7 1.8 3.8 4.4 1.1 5.3l-0.3-0.9-7.1 3.9c2.2-1.8-0.7-2.8-0.3-3.9l-11 11.4-32.9-3.6 15.5 29.2-13.6 30.2 32.6-5.7 24.5 22.3 4.6-32.8 0.9-0.5c-0.1-0.1-0.1-0.3-0.2-0.5l1.7-0.4 2.5-1.4c-2.8-2.6-4.7-7-2.3-10.1l-3.6 0.7 3.5-7.3c1.9-1.1 9.6 7.6 11.6-1.8-3.2 4.1-6.8-1.8-3.2-2.5 6.5 4.1 13.7 6.2 10.5 11.6l7.2-4.1-29.7-14.5-6.6-32.8z m-18.2 75.9l1.5-4.6 3.5 3.4c-1.7-0.5-2.6 3.5-5 1.2m9.7-7.4l-1.9-3 3.9 0.2-2 2.8z m8.8-7.5c-3 0-2.7-3.2-2-5.5 3.4 0.9 2.2 3.9 2 5.5m-12.1-40.6l8-1.1 0.2 5c-3.8-0.2-7.2-1.1-8.2-3.9m16.9 26.1c-0.3-0.8-0.2-2.1-1.6-2.3h-0.8 0.8c5.7-0.1-1.2-4.4 4.8-5.9l-3.2 8.2zM807.6 214l0.3 0.3c1.6-0.4 3.7-0.6 5.4-0.9-2.9-2.9-5.8-5.8-8.8-8.6-1.1 0.5-2 1.1-2.6 2-0.3 0.5-0.4 0.9-0.4 1.3 0.6 0.6 1.2 1.2 1.8 1.7 2.8 1.1 7.4 1.2 4.3 4.2m-9.7-15.3c-14-12.6-28.7-24.3-44.1-34.9-1 1.1-1.8 2.4-2.9 3.4 1.2 0.8 2.4 1.7 3.7 2.5 0.8-0.5 1.4-1.2 1.4-2.5 1.7 1.2 0.5 2.1-0.6 3 1.2 0.8 2.4 1.7 3.5 2.5 0.9-0.6 1.7-1.2 2.8-0.4-2.7-0.3-2.7 0.2-1.9 1 1.7 1.2 3.4 2.5 5.1 3.7l0.5-0.2c-0.1 0.1-0.2 0.2-0.4 0.3 1.6 1.2 3.3 2.5 4.9 3.7 1-0.3 1.7-0.8 2-1.3v2.8l2.7 2.1c0.8-0.1 1.6-0.4 2.1-0.8l0.3-0.5c-0.1 0.2-0.2 0.3-0.3 0.5l-1.1 1.5c1.2 1 2.4 1.9 3.6 2.9v-1.3l4.3 3.1c0.1 0.6 0.1 1.3 0.2 1.9 4.5 3.8 9 7.7 13.4 11.8 0.4-0.6 0.9-1.1 1.5-1.6l-1.5 0.9c-2.4-1.8-0.9-2.9 0.8-4.1M655.1 304.9c0.4-0.2 0.8-0.3 1.3-0.4-0.4 0.2-0.8 0.3-1.3 0.4-0.4 0.2-0.7 0.4-0.9 0.6l7.2-2.9c-1.5-1.1-3.1-2.1-4.7-3.2-0.6 2.2-1.3 4.5-4.3 5.2 0.2 0.1 0.3 0.2 0.5 0.3 0.7 0 1.5 0.1 2.2 0m145.6-110.2c-0.4-0.1-0.7-0.2-1-0.4 0.4 0.3 0.8 0.7 1.1 1 0-0.2-0.1-0.4-0.1-0.6M504.9 758.4c-0.8-0.4-1.3-1.1-0.6-2.3 0.7 0.8 0.9 1.6 0.6 2.3 0.1 0.1 0.2 0.1 0.4 0.2 1.8 0.1 3.6 0.1 5.4 0.1 1.5-2.1 1.9-4.9 0-5.4l-2 1.6 3.3-4.6c-2.9 0.1-3.5 1.7-5.6 2.2l-3.8-2.9c-1.2-0.1-2.4-0.1-3.7-0.2-2.8 1.1-7.1 1.5-10.1-0.8h-0.2l-0.3 0.3-2.3 3.7c0.2-1.1 1.2-2.4 2.3-3.7l0.2-0.3c-35.4-3.7-69.5-15.3-99.7-33.8l-10.1 4.1c3.8 2.5 7.7 4.9 11.7 7.1l1.1 0.4v0.2c3.9 2.2 7.8 4.3 11.8 6.3l1.5-2.1c3.3 5.9 8.6-2.4 13.2 3.4-1.2 0.9-2.2 2.5-3.4 4.1 28.3 12.4 59 19.4 90.3 20.4v-0.3M478.2 217l1.2-0.7c0-0.2 0-0.3 0.1-0.5-0.5 0.4-0.9 0.8-1.3 1.2M364.9 730.9c-0.3-0.2-0.5-0.3-0.7-0.5-1.7 0.4-3.2 1.3-4.4 2.3 1.8 1.2 3.6 2.5 5.4 3.7 1.9-1 0.9-3.7-0.3-5.5m261.6-626.4l-0.1-0.1c-10.6-3-21.4-5.5-32.2-7.7l1.7 4.9c7.8 1.6 15.6 3.4 23.3 5.4l0.1-1.5 5.8 0.9-1.8 1.8c33.5 9.2 65.7 22.4 96 39.5 1.6-1.2 3.1-1.9 4.1-2.1 0.8 0.8 1.8 1 2.8 0.9-31.3-18.2-64.8-32.3-99.7-42.1v0.1m100.6 47.6c7.2 4.3 14.3 8.7 21.2 13.4 1.4-1.9 1.2-3.4 5.4-1.7-7.6-5.2-15.3-10.2-23.2-14.9-1.1 1.1-2.2 2.2-3.4 3.2M412 744.3c-8.5-3.7-16.9-7.9-25-12.6-2 1.5-4.1 2.9-5.2 4.4 0 0.1 0.1 0.2 0.1 0.3 7.2 4.2 14.6 8.1 22.2 11.6 2.7-1.2 5.6-2.6 7.9-3.7m-12.4 1.4l-1-4.4 3.8 2.3-2.8 2.1z m157.3 166.1c-1.5 0.2-3 0.3-4.4 0.5l-0.6 1.4 5-1.9z" fill="#C21124" p-id="17985"></path><path d="M380.2 727.6c-2.2-1.3-4.3-2.7-6.5-4.1-2.4 1.3-4.8 2.8-4.3 5.1 2.1-1.6 6.3-2.8 9.3-1-4.1 0.6-5.7 1.6-6.5 2.8 3.2 2 6.3 4 9.6 5.9 0-0.1 0.1-0.1 0.1-0.2-1-2.8-2-5.7-1.7-8.5M427.6 921l9 1.8c-0.3-1.4-0.6-2.8-0.3-3.9-5.2-0.3-7.6 0.5-8.7 2.1M352 887.2l10-2.4c-3-1.2-6-2.5-9-3.8-0.2 0.3-0.2 0.6-0.1 1-1 0.8-1.6 1.6-1.7 2.4 0.1 0.4 0.1 0.9 0.1 1.3 0.1 0.5 0.4 1 0.7 1.5M124.9 370.3c2.5-1.4 4.4-2.7 3.2-4-2.1-0.5-2.8 0.9-5 1.4-0.6 1.5-1.2 3.1-1.7 4.7 0.6-0.4 1.3-0.8 2-1.2 0.3-0.5 0.7-0.9 1.5-0.9m187.3 450.5l-0.3 3.8h0.1c1.5-1.7 1.3-2.9 0.2-3.8m-111.6-20.5l-1.7 0.1c0.4 0.5 0.9 1 1.4 1.5 0.5-0.4 0.7-0.9 0.3-1.6" fill="#C21124" p-id="17986"></path><path d="M217.1 784.1l-11.6 4.7c-0.8 1-1.7 1.9-2.5 2.9 1.3 1.5 2.7 3 4 4.4 1.4-0.3 2.8-0.4 4.2 0.2-1.3 0.1-2.4 0.3-3.3 0.7 35.3 37.9 77.1 68.5 122.8 90.7 4.2 0.1 7.1-7.7 13.5-6.3 0 0.3-0.1 0.6-0.2 0.8 1.3 0 2.8 0.9 3.4 1.3l-4.9 1.7c-0.4-0.7-0.3-1.3 0.1-1.8-2.6 1.5-7 2.5-3.6 5.2-3.8-1-4.9-0.3-5.7 0.4 5.4 2.6 10.8 5 16.2 7.3 0.2-0.8 0.5-1.5 0.8-1.9-0.7-0.4-2.2-0.4-2.9 0.2 0.8-2 1.9-3.7 2.7-5.3-0.3 0-0.5 0-0.7 0.1l-2.9-0.9 4.4-1.1c0.2-0.6 0.4-1.2 0.4-1.8-0.1-0.4-0.1-0.9-0.1-1.3-0.3-1.5-1.3-3-3.5-4.6 0.4-0.2 0.9-0.4 1.3-0.5-0.6-0.3-1.2-0.5-1.8-0.8-0.5 0.9-1.7 1.8-3 2.3l0.1-3.6c-47.5-22-91-53.4-127.2-93m-16.6 11.4c-0.1 0.3-0.1 0.6-0.1 0.9-1.3-1.4-1.7-2.3-1.9-3.1-0.4-0.4-0.7-0.8-1.1-1.2l-4.4 1.8c1.9 2.2 3.8 4.3 5.7 6.4 1.1-0.4 2.5-1.3 4-2.2-0.7-0.9-1.5-1.7-2.2-2.6" fill="#C21124" p-id="17987"></path><path d="M349.5 906l-1.3-0.6c0-0.8 0.1-2.7 0.4-4.6-54.2-22.9-103.5-57.2-144.3-101.1-1 1-2 2.1-3.4 2.8 41.8 45.2 92.7 80.3 148.6 103.5M122 425.4c1.3-5.9 2.8-11.8 4.4-17.6l-0.8-0.5c-12.5-5.6 1 5.9-7.6 7 0.9 0 1.5 0.1 1.8 0 0.2-0.2 0.3-0.4 0.3-0.6 0 0.4-0.1 0.5-0.3 0.6-1.7 2-8.6 3.7-5.3 2.3 6.7-5.7 0.6-8.6-3.3-12.1-1.8 6.4-3.4 12.9-4.8 19.4 1.6-0.1 4 0.6 6 0.3 0.9-0.2 1.8-0.6 2.4-1.3-0.6 0.8-1.4 1.1-2.4 1.3-2.2 0.5-4.8 0.2-6.3 1.2-2.8 12.9-5 25.9-6.6 39 2.8-0.7 5.5-3.2 5.3-3.7-0.1 0-0.1-0.1-0.2-0.1 0.1 0 0.2 0 0.2 0.1 2.8 1.2 5.3 9-0.2 11.1-1.6-2.8 2.9-8.2-5.1-7.2-0.1 0.5-0.1 1-0.2 1.5 0.6 0.6 2 0.5 2.1 1.9l-2.3-0.4c-2.3 20.8-3.1 41.9-2.2 63.1l15.4-6.2c-0.9-33.2 2.4-66 9.5-97.9l-2.2 1.5c-2.2-0.4-1.5-0.8-1.6-1.7 0.4-1 1.9-1 4-1m-3.2-8l4.3-0.1c-0.4 1.8-0.8 3.7-1.1 5.5-5.8 0.1-3.1-3.6-3.2-5.4m239.6 489.5l-0.8-2.4s-0.1 0-0.1-0.1c-3.4-0.2-2 2.4-3.1 3.5 3.7 1.5 7.3 2.9 11 4.3 0.7-0.2 1.5-0.4 2.3-0.6 0 0.6 0.1 1.1 0.2 1.6 1.5 0.5 2.9 1 4.4 1.6-0.4-1.6-0.7-3.4 2.3-3.9-5.3-1.9-10.6-3.8-15.9-5.9-0.3 0.3-0.4 0.9-0.3 1.9M127 405.5c0.3-0.9 0.5-1.8 0.8-2.7-0.6 0.2-1.1 0.6-1.6 1.2-0.2 0.7 0.2 1.2 0.8 1.5m243.4 484.2c1 0 1.6-0.4 2.2-0.9-3.5-1.3-7-2.7-10.5-4.1 1.8 4.3-3.8 4.6-8.2 4.5 3.3 3.3 8 6.6 3.5 10.4 5.8 2.3 11.6 4.5 17.5 6.6 3-1.8 3.8-4.8 4.2-7.5-6.3 3.8 2-2.6-4.4-0.8l-3.3 4.6c-1.5-0.9 0.9-8 7.5-5.8 0.7-1.3 1.4-3.1 1.7-4.9-2.3-0.8-4.5-1.6-6.7-2.4-0.7 1.6-1.1 2.7-3.5 0.3M129.5 357c-0.5-0.3-1.2-0.7-1.8-1.1-0.4 1-0.8 2-1.2 3.1 3.9-1.6 11.7 2.5 10.3-2.8-2-2.2 0.3-10.4-2.8-14.6-1.8 3.9-3.5 7.9-5.2 11.9 2.3 0.6 2.4 2.4 0.7 3.5m-8.8 17.3c-2.6 7.3-5 14.6-7.1 22 4 0.1 1.3-6 4.9-6.8-0.7 1.4 2.3 3.2 5.2 5.9 4.9-5.1 4.8-7.8 3.2-13.3l-5 0.5c-3.6 1.4 8.1 5-1.3 5.5-6.3-3.2 1-5.6 1.1-7.8l-2.1-1.9c1.6 0.6 2.2 1.2 2.1 1.9l1.6 1.4c6.4-3.2 2-7.9 2.7-11.1-0.4-0.1-0.8-0.2-1.1-0.2-0.5 0.3-1 0.6-1.5 0.8-0.9 1.4-0.4 4.1-2.7 3.1m2.4-6.7l2.1-4.1h-0.5c-0.6 1.4-1.1 2.8-1.6 4.1m348.8 440.5l-25.7-0.2c0.2 0.4 0.2 1 0 1.7-2.4 3.3 0.3 6.4-6.2 6.8-0.3 2.1 0.9 3.7 2.4 5.1 0.4-0.9 1.4-1.6 3.6-1.9 1.1 2.4 2.7 7.6-2.4 7.9 0.3-1-1.9-3.7-1.3-5.7-3.8-2-2.7 2.6-5.9 3.5l3.8 0.9c-1.9 1.8-5.1 4.7-7.8 6l3.5-5.4c-11.6 0.7-5 5.6-16.4 7.3l5.9-4.3-5.4-1.7c2-0.8 6.2-2.4 8.6-1.2 5.4-7.2-5.4-6.1-1-14.7 7.7 3.7 3.2-8.5 9.2-7l-18.1-23.7-10.5 31.4-31.2 10.9 26.6 19.7 0.4 14.5c0.3-0.2 0.4-0.7 0.3-1.7 6.4 3.1 0.5 7.5 1.1 11.4l-1.2-0.6 0.2 9.5 26.9-19.2 31.7 9.5-10-31.6 18.9-27.2z m-74.4 24l1.8-2.8 4.6 1.4-6.4 1.4z m9.6 11.3v-4.5l5.1-0.2-5.1 4.7z m45.5 18.3c-1.6-0.7-1.3-3.3-2.1-3.7 3.5-1 1.1 2.4 2.1 3.7M125 362.7l4.5-2.9-3.2-0.5c-0.4 1.2-0.9 2.3-1.3 3.4" fill="#C21124" p-id="17988"></path><path d="M139.6 368.1c-1.6 2.5-2.9 4.9-3.4 7.1-7.2 0-2.8 7.4-9.3 5.1l5.1 3.3c1.4-0.9 2.9-0.9 2.1-2.3 0.2 0 0.4 0.1 0.5 0.1 1.6-4.5 3.3-8.9 5-13.3m495.9 552.4c0.9-1.7 1.2-3.4 1.4-5.1-28.3 8.8-56.8 14.4-85.4 17.1 0.2 1.6 0.8 3.1 0.4 4.4 28-2.6 56-8 83.6-16.4M153.9 335.6c-3.7 1.9-6.6 4-4.3 7.8 0.1 0.2 0.1 0.5 0.2 0.8 1.4-2.9 2.7-5.8 4.1-8.6m486.5 568.9l3.4-12c0.4 4.9 9.1 5.4 8.6 8.9-2.8 1.1-2.4-3.3-5.1-0.2 1.6 1.8 1.6 3.7 1 5.8 6.7-2.3 13.5-4.8 20.1-7.6 15.2-6.1 29.9-13.1 43.9-20.8l-4.3-0.3c6.4-1.8 5.4-5.2 3-8.5l-1.4 1.1c-2-4.4-1.6-5.9-1.4-7.7-14.5 8.1-29.7 15.4-45.6 21.8-34.2 13.8-69.3 22.6-104.3 26.7-1.6 1.6-2.2 4-6.4 3 3.2 4.7 2.1 9.7 6.7 12.4l-1.9 0.4c26.9-2.9 53.8-8.4 80.3-16.8 0.1-2.2 0.2-4.4 1.1-6.5l-3.1 1.6c-0.3 0.2-0.7 0.4-1.2 0.6l1.2-0.6c2.1-1.3 2.9-2.8 5.4-1.3M572 919.9l4-5.1 1.5 0.9-5.5 4.2z" fill="#C21124" p-id="17989"></path><path d="M937.6 509.2c-0.1-5.4-0.2-10.7-0.5-16.1l-4.4 1.8c0.4 9 0.5 18 0.3 26.9v0.5c-3 141.7-77.8 275.8-202.9 351.2v0.3c0.2 0.2 0.6 0.4 1.1 0.6 1.2-0.2 2.3-0.3 3-0.6 0.3-0.3 0.6-0.7 0.8-0.9-0.2 0.4-0.5 0.7-0.8 0.9-0.5 0.5-1.3 1-2.6 0.8-0.1 0-0.3-0.1-0.4-0.1-0.4 0.1-0.7 0.1-1.1 0.2l-0.1-0.8-0.2-0.2C711 885 691 895.1 670 903.6c-8.2 3.3-16.3 6.3-24.6 9.1-1 1.8-1.8 3.6-2.1 5.4 9.5-3.1 18.9-6.5 28.3-10.3 166.5-67.4 267-227.8 266-396.8-0.4-0.6-0.6-1.2 0-1.8M547.7 932.8c-15.5 1.3-31 1.7-46.4 1.3-0.7 1.4-1.2 2.9-1.3 4.4 9.8 0.3 19.7 0.2 29.6-0.1 0-0.2 0.1-0.3 0.2-0.5 0.2 0.1 0.3 0.3 0.5 0.4 6.6-0.3 13.1-0.7 19.7-1.3l-4.4-1.9c0.9-0.7 1.6-1.5 2.1-2.3m-120.8-7.4c0.1 1.5 0.4 3.1 0.3 4.6 18.7 3.9 37.8 6.5 57 7.8-0.2-1.6-1-3-3.6-2.8-0.3 0.1-0.7 0.1-1.1 0.2 0.4-0.1 0.7-0.1 1.1-0.2 1.5-0.3 2.6-0.9 3.4-1.7-19.3-1.4-38.3-4-57.1-7.9m63-7.5l4.5 2.7c7-3.3-3-1.8 1.7-6.5 8.9 2.5 6.1 4.6 10.7 8.3-0.1 2.5-1.5 4.9-3 7.3 15 0.3 30-0.2 45.1-1.5 0.2-5.3-2.8-11.3 1.7-15.8-23.6 2.3-47.2 2.4-70.4 0.5-2.5 2.4 1.8 3.9 5.1 3.3l-0.4 4.4-5.2-1.2c0.2 3 1.8 6.2 1.6 9.2 1.6 0.1 3.3 0.2 4.9 0.3 0.9-2.8 1.4-5.3 4.8-4.7 2-2.6-1.6-1.9-4.6-2.7 2.9-1.1 2.9-2.1 3.5-3.6" fill="#C21124" p-id="17990"></path><path d="M479.8 912.9c-12.4-1-24.8-2.6-37-4.8-2.4 5-5.1 9.9-5.5 14.8 12.1 2.2 24.4 3.9 36.7 5.1 0.4-2.7 2.3-6.4-1.4-9.1l7.2-0.4c0.5-1.3-1.1-4.5 0-5.6M357.7 731.4c0-0.5-0.2-1.1-0.6-1.6-0.5-0.1-0.8-0.2-1-0.2-0.1 0.2-0.2 0.3-0.3 0.5 0.7 0.4 1.3 0.9 1.9 1.3" fill="#C21124" p-id="17991"></path><path d="M354.1 728.8c0.6 0.4 1.1 0.8 1.7 1.2-0.1-0.3-0.1-0.5 0.4-0.4 0.6-0.8 1.3-1.6 1.9-2.4l-4 1.6zM188.5 382.3l-0.1 0.2c0.2 0.7 0.6 1.3 1.3 1.7l-1.2-1.9z m634.9-151.9l3.4-0.9c0.2 1.5-0.8 2.1-2.1 2.4 1 1.1 2 2.3 3 3.4l4.4-1.8c-0.4-0.4-0.8-0.9-1.2-1.3-0.2 0.2-0.3 0.4-0.4 0.6 0.2-0.3 0.2-0.6 0.1-1-2.9-3.2-5.7-6.4-8.7-9.5 0 1.7-2 1.9-4.1 2.2 2 2 3.8 3.9 5.6 5.9m-20.3-7.4l2-0.5c0.5-0.7 1.4-1 3.1-0.8l-3.1 0.8c-1 1.3-0.6 3.6-2 4.5l4.3 1.2c0.9 0.7-0.3 3.5-1.4 5.5-0.1 0.3-0.3 0.6-0.5 0.9-0.5 0.8-0.9 1.3-1.1 1.4 0.3-0.5 0.7-1 1.1-1.4 0.2-0.3 0.4-0.6 0.5-0.9 0.6-1.3 0.4-2.5-2.2-3.2-1.6 0.3-4.5 0.9-6.1 1.7 2.1 2.1 4.2 4.3 6.3 6.5 2.5 0.9 4.5 2.6 6.9 3.4l1.1-0.4c2.6-3.8-2.9-4.6 3.3-5.7l-1.5 3.9 3.5-0.3 6.3-2.6c-2.3-2.6-4.6-5.1-7-7.6-2.2-0.1-5.5-1.3-5.4-3.6 0.7 0 1.3-0.1 1.8-0.2-2.8-3-5.7-5.9-8.7-8.8-2.9 1.4-4.4 3.3-1.2 6.2" fill="#C21124" p-id="17992"></path><path d="M814.6 228.4h1c-0.5-0.5-1-1.1-1.5-1.6 0 0.5 0.2 1 0.5 1.6m2.9-10.7c0.1 0.9 0.6 1.7 2.1 2.2-0.7-0.8-1.4-1.5-2.1-2.2m-8.6-2.5l2.4 2.4c-0.5-1.2-0.2-2.4 2.1-3.4-1.1 0.3-2.8 0.6-4.5 1M477.7 103.8l5.8 4.7c-2.9 0.7-3.5 1.4-3.4 2.2l0.6-0.3c-0.2 0.1-0.4 0.3-0.6 0.4 0.3 1.1 2 2.3 0.9 3.6 1.8-0.1 3.5-0.3 5.3-0.4l1-0.6 2 0.4c15.1-0.9 30.1-0.9 45-0.1 0-1.7-0.7-3 1.4-3.4 2.9 1.7 1.6 2.6-1.1 3.4 31.8 1.8 63.1 7.3 93.3 16.4 1.6-0.5 3.2-0.8 4.4-1l-0.6 2.1c13.7 4.3 27.2 9.3 40.4 15 0.2-0.2 0.5-0.4 0.9-0.5-0.1 0.3-0.3 0.5-0.5 0.7 23.7 10.3 46.4 22.9 67.8 37.6-0.2-2.2 0.6-4.2 0.7-5.6 6.5 0.7-0.8 6.4 3.6 7.5 3.6-4.4 5.1-8.3 2.9-13.8 0.5-0.3 1.1-0.6 1.8-0.8-8.5-5.8-17.2-11.4-26-16.6-1.2 0.6-2.4 1.1-3.9 1.4 3.6 0.4 0.2 3.5 0.4 6.1l2.5 2.8c-1.8-0.7-2.5-1.7-2.5-2.8l-4.7-5.2-4.3 1.9c0.4-2.6 2.6-5.8 5.2-8.4-26.8-15-55.3-27-84.8-35.8-2 0.6-4.3 0.5-3.3 3.1 1.4 0 2.9 0 2.9-0.9 8.1 6.1-7.1 5.6-9.2 10.7-2.9-2.8 7.1-6.5 4.1-10.2-2.2-0.5-3.6 2.3-5.8 0.9 2.9-0.9 5-3.3 7.2-2.8l-4.4-2.8c0.1-0.1 0.1-0.2 0.2-0.3-1-0.3-2.1-0.6-3.1-0.8l-0.7 0.7 0.1-0.9c-27.4-7.3-55.7-11.8-84.3-13.3 0.5 0.8-0.2 1.9 0.1 2.7 0.2 0.2 0.4 0.4 0.6 0.7-0.4-0.2-0.6-0.5-0.6-0.7-3.5-3.4-6.1 1.8-10.3-2.2 1.2-0.2 2.1-0.5 2.9-0.8-8.7-0.3-17.5-0.3-26.2-0.1-2.6 4.2-0.4 8.7-6.6 13.1 5.7-4.2-5.1-2.1-7.4-4.2 0.6-0.1 1.1-0.3 1.6-0.5-4.3-1.3-7.8-3.4-11.3-2.3m43.9-1.6l2.2 1.3-6.4 1.3 4.2-2.6zM778.8 813c1.4-0.1 2.9-0.5 4.3 0.3-5.3 6.2-2.3 8-3.3 14.9-0.2-2.9-9-6.3-5.9-10.9-1.7 1.5-3.5 3-5.2 4.4-0.2 0.2-0.4 0.4-0.7 0.6-16.4 13.6-34 25.9-52.8 36.9 1.6 4.3 5.6 9 3.5 14-4.9-1-2.6 1-1.9 3C842 805.9 919.3 677.3 927.9 539.4c-1.2 0.8-2.5 1.5-3.9 2.1-2.2 1-4.6 2-6.5 2.8-0.1 1.4-1.2 2.6-4.9 3.1 0.7-1.1 2.6-2 4.9-3.1 0.1-0.8-0.2-1.6-0.4-2.4-0.3-1.2-0.7-2.4-0.4-3.4 0.2-0.5 0.5-0.9 1.1-1.3 0.3 7.7-0.4-10.5-0.3-8.6h0.1l0.1-0.1 0.3-0.1 0.6-0.2c0.5-0.1 1-0.2 1.6-0.3-2.2-0.9-4.3-0.4-7.3-0.9-3.7 109.1-52 213-134.1 286M134.3 340.7l4.6 0.1c-4.4-3.9 8-8.7 15.2-9.5 2.2-5-3.5-10.9 2.3-12.6l-0.1 3.8c2.6 0.1 3.5-2.6 5.8-2.3 3.8-6.9 7.8-13.7 12-20.4-0.3 0-0.6 0.1-0.8 0.1 0.3-0.1 0.7-0.2 1-0.3 1.2-1.9 2.5-3.9 3.7-5.8-0.4-1.2-1.6-2.3-3.8-2.9 0 1 0.7 2.4-0.8 3.3 2.2-2.3-7.8-8.4-0.5-10 1.9 5.1 9.3-0.9 12.6-1.3-10 0.7 0.5-5.8-8-7.1-4.4 0.8 0.6 5.3-5.1 2.2 2.4-8.1 9.4 1.8 11.7-6.2-0.7-2.4-6.5-1.7-7.9-1.8l-0.8 1.4-0.3-0.6c-16 21.9-29.6 45.3-40.8 69.9m13.2-11c-4.3-1-2.8-3.8-5-5.3l4.4-0.8c-5.8 3.6 6.5 4.4 0.6 6.1M406 734.2c2.5 1.2 5.1 2.4 7.6 3.5 0.8-0.6 1.3-1.3 0.9-2-0.3-4.7-4.6-3-8.5-1.5m94.6 37.5c1.1-2.5 2.6-5 1.5-6.6-30.6-1.3-60.6-8.2-88.4-20.1l-2.4 6.2c28.1 12 58.4 19.1 89.3 20.5M89.3 475.5l0.2-0.2c0-0.1-0.1-0.2-0.1-0.4l-0.1 0.6z" fill="#C21124" p-id="17993"></path><path d="M93.7 450.4c-0.6 0.4-1 0.7-1.4 1-0.2 1.2-0.3 2.3-0.5 3.5 0 0 0 0.1 0.1 0.1l0.7 1 0.1 0.3 0.1 0.1v0.1c0.1 1.7 0.1 2.3 0.1 2.4v-0.2l0.1 0.6c0.1 0.8-0.2 1.7-1.4 2.9-0.3-0.2-0.5-0.3-0.7-0.5-0.5 4-0.9 8-1.3 11.9 1.7-0.2 2.7-1.7 3.3-2.2l-3.3 3.9c0 0.3 0 0.5-0.3 0.8-0.7 7.7-1.2 15.4-1.4 23.1l0.3 0.3c0.9-0.2 2-0.2 3.5 0.3-1.8 0.3-2.8 0.1-3.5-0.3-0.1 0-0.2 0.1-0.4 0.1-0.4 11.5-0.3 23.1 0.3 34.7l4.4-1.8c-1-22.2-0.2-44.3 2.3-66.1-0.2-1.9-0.9-4 0.4-5 0 0.5-0.1 1 0 1.5 8.6-70.5 35-137.8 76.4-195.3-1.4-0.6-2.9-0.8-4.7-1.1-1.1 1.6-2.3 3.2-3.4 4.8l1-0.3c-0.5 0.5-1.1 0.9-1.6 1.1-5.8 8.5-11.4 17.2-16.6 26 2.1 1.8 4.1 3.3-0.6 6.2l-2.1-1.5c-14.4 25.3-26.2 52.1-35.2 79.8 1.6 0 3.4-0.2 4.2 1.1-1.6 0.1-3.1 0.1-4.5 0-1 3.1-2 6.3-2.9 9.5 0.1 2 0.3 3.9 2.1 5.4l-4.7 4c-4.3 15.8-7.7 31.9-10.1 48.2 0.2 0 0.7-0.2 1.2-0.4M269 342.7c-0.4-0.1-0.9-0.3-1.4-0.5 0.1 0.4 0.2 0.9 0.2 1.3l1.2-0.8z m-68.4-13.1l1.9-2c2.6 1.2 1 2.3-1.2 3.2l5.1 8.7-1.5 3.8 0.5 0.9 0.7-0.4c2.6 6-5.2 13.6 1.2 18 1-0.3 1.7-0.2 1.8 1-0.7-0.3-1.3-0.6-1.8-1-2 0.5-5 2.4-5.5-0.9-3.4 2.1-3.2 5.4-1.5 8l26.1-5.7 25.4 21.2 3-30.7c-0.3-0.2-0.6-0.5-1-0.8l1 0.6 0.2-2.2 3.2-2-0.1-0.8-10.9 0.2c5.1-1.2 7.3-8.8 0.7-9.4-1.4-0.1-3.6 0.4-5.1 1.2 1.5-8-5-15.1 0.9-23.2 1.5-1.8 4.4-1.7 7.2-2.5-6.5 7.4 9.4 14 7.1 21.7 0.8-1.4 6.4-1 5.7-3.1l-3.6-0.6c0.7-2.2-1.4-9.1 6.6-5.7l-3 5.3c4.2-0.3 4.5-2.8 4.8-5.1l-16-7-4.2-16.7c-1.4-0.1-3.1-0.3-4.5-0.3-5.7-3 0.8-0.4-1.3-5.7l4.7 1.5-1.5-6.1-0.3 0.9-1.4-1 1.2-1.9-0.7-2.9-22 24.7-31.1-2.1-0.4 0.3-0.1-0.3-1.4-0.1 11.1 19z m3.5-10.9c0.5-0.1 1-0.2 1.4-0.3-0.5 0.2-1 0.3-1.4 0.3-1.9 0.4-4.1 0.7-5.8-0.5 3.9-4.1 1.9 0.8 5.8 0.5m-1.5 3.4l-2.2 1.3 4.3 2.9-5.8-3.9 3.7-0.3z m37.2-112.9c4.2-1.9 4.4-7.3 3.5-12.7-3.9 3.3-7.7 6.6-11.4 10.1 2 1.8 4.1 3.5 7.9 2.6m-36.7 13.2c-1 1.1-2.1 2.2-3.1 3.3 2.1-0.2 4.4-0.5 6.3-0.2 0.9-0.9 1.8-1.9 2.7-2.8l-1.5-0.6c-1.7 0.1-3.8 1-4.4 0.3m71.3 210.3c-0.1-2.9-4.4-4.2-0.7-6.3l2.4 1.5c10.4-28.6 25.9-55.2 45.9-78.5l-0.2-0.2 2.2-3-0.7 1.8c24.8-28.4 56.3-51.6 93.4-66.9-0.7-0.5-2.1-0.5-2.9-0.1-5-1.6 2.2-2.2-0.6-5.2l10.1 1.4c-1.1 0.8-2.1 1.6-3.2 2.6 17.8-7.1 36-12 54.2-14.8-1.3-0.5-2.9-0.9-5.1-1.3l10.1-0.5v1.1c13.6-1.8 27.2-2.5 40.6-2.1 2.4-2.3 4.2-3.3 8.4-3.4 0 1.8-0.9 2.9-2.2 3.7 20.4 1.1 40.6 4.7 59.9 10.6-0.1-0.2-0.1-0.5-0.1-0.8l-3.3-7.1c-0.1 0-0.2-0.1-0.3-0.1l-1.3 0.6 1-0.6c-20.5-5.7-41.8-9-63.4-9.5-1.1 1.1-2.5 2.2-5.4 2-0.4 0.2-1.8-1.1-3.7-2.1-11.6 0.1-23.2 1.1-34.9 2.8-0.2 0.8-0.3 1.6-0.3 2.4-0.6-0.7-1-1.5-1.2-2.2-18.3 2.9-36.6 7.7-54.6 14.8 0.1 0 0.1 0.1 0.2 0.1l1 0.4c-0.4-0.1-0.7-0.2-1-0.4l-0.2-0.1c-0.9 0.3-1.7 0.7-2.6 1-27 10.9-51.2 25.9-72.1 44 1.6 1.6 3 2.8 0.5 3.2-0.4 3.6-4.3 4-8.5 4-24.9 23.4-44.7 51.4-58.5 82l0.3-0.5 1 5.8c-0.7-1-1.8-0.5-3.4-0.6-3.7 8.6-6.9 17.4-9.6 26.4 2.2 0.3 3.6 1.1 1.6 3.6 0.2 0.8 0 1.6-0.4 2.3-0.2 0.4-0.4 0.7-0.7 1l-0.5 0.5-0.1 0.1c0.7 18.2 0.2 5 0.4 9.1l-0.1 0.1-0.3 0.3c-1.3 1.3-3.2 2.5-5.1 3.5-0.4 2-0.9 4.1-1.3 6.2l7.4-3c1.9-10 4.6-19.9 7.9-29.6m-28.8-244c0-1.3 0.1-2.6 2.3-1.9 0.3-0.2 0.5-0.4 0.8-0.7 1-2.2 2.6-5.3 2.5-7.7-16.9 13.2-32.7 27.5-47.2 42.9 1.3 0.1 2.5 0.3 3.4 0.6 0.7-0.1 1.4-0.1 1.8 0.3 10.3-10.8 21.3-21 32.8-30.7-0.1-0.5-0.3-0.9-0.4-1.3 0.5 0.2 0.9 0.4 1.3 0.5 1.1-0.6 1.9-1.3 2.7-2m-51.5 181.5l2.1-0.5c-0.5-0.2-1-0.4-1.6-0.8l-0.5 1.3z m57.9 89.9c-0.3-1.2-0.7-2.4-0.4-3.4 0.2-0.5 0.5-0.9 1.1-1.3 0.2 4.3 0 0.5-0.1-3.4-0.9 3.8-1.7 7.6-2.5 11.5 0.7-0.4 1.4-0.7 2.3-1.1 0.1-0.6-0.1-1.4-0.4-2.3m2.2-14.2c0 0.2-0.1 0.3-0.1 0.5 0.3-0.1 0.7-0.1 1.1-0.2-0.4-0.2-0.7-0.3-1-0.3" fill="#C21124" p-id="17994"></path><path d="M646.7 300.8c1.1-3.4-7.8-4.6-2.3-7.3-5-0.7-2.1-2.5-5.7-1.2-1.7-1.6-0.9-2.8 0.4-3.7-15.7-8.8-32.3-16-49.5-21.4-0.1 0.9 0.8 2 3.4 3.3l-7.2-1.3c0.5 1 0 2.1 0 3l0.4 0.9c21.2 6.5 41.6 15.8 60.5 27.7M249.9 465.1c-0.2 1.4-0.5 2.7-0.7 4.1l4.9-2c0.4-2 0.7-3.9 1.1-5.9-0.9 0.4-1.9 0.8-2.7 1.2-0.1 1.1-0.8 2-2.6 2.6M269.7 340c1.2 0.3 2.2 0.1 3.1 0 0.2-0.2 0.6-0.3 1-0.3l9.3-5.8-5.4-2.3c0.5 1.5 1.3 3 2.8 3.9-4.3-1.1-10.8 1.8-10.8 4.5m160.1-110.8c-1 1.2-1 2.4-0.3 3.6l2.5 0.2-2.2-3.8z m10.8-58.5l2.1 1.9 2-0.4c-0.5-0.8-0.7-1.6-0.7-2.3l-3.4 0.8z" fill="#C21124" p-id="17995"></path><path d="M272.3 340.6l1.3-0.8c-0.2 0-0.5 0.1-0.7 0.1-0.4 0.3-0.5 0.5-0.6 0.7m46.9-61.4l7-1.8c-0.6-0.3-1.2-0.6-1.4-1l-5.6 2.8z" fill="#C21124" p-id="17996"></path><path d="M506.3 466.7c-1.1 1.7-4.1 5.7-0.6 4.6l-0.1-0.4c0.9-1 2-0.3 2.6-0.1 0.8-1.4-0.6-3.2 0.7-3.7-0.3-0.1-2.1 1-1.9-0.3l-0.4-0.1c-0.1-0.3-0.2-0.8-0.4-1.4l-0.2 1.3 0.3 0.1z m92.5 96.7c-1.1 1.7-4.1 5.7-0.6 4.6l-0.1-0.4c0.9-1 2-0.3 2.6-0.1 0.8-1.4-0.6-3.2 0.7-3.7-0.3-0.1-2.1 1-1.9-0.3l-0.4-0.1c-0.1-0.3-0.2-0.8-0.4-1.4l-0.2 1.3 0.3 0.1z m18.6-4.4c-1.1 1.7-4.1 5.7-0.6 4.6l-0.1-0.4c0.9-1 2-0.3 2.6-0.1 0.8-1.4-0.6-3.2 0.7-3.7-0.3-0.1-2.1 1-1.9-0.3l-0.4-0.1c-0.1-0.3-0.2-0.8-0.4-1.4l-0.2 1.3 0.3 0.1z m112.1-176.4c-1.1 1.7-4.1 5.7-0.6 4.6l-0.1-0.4c0.9-1 2-0.3 2.6-0.1 0.8-1.4-0.6-3.2 0.7-3.7-0.3-0.1-2.1 1-1.9-0.3l-0.4-0.1c-0.1-0.3-0.2-0.8-0.4-1.4l-0.2 1.3 0.3 0.1z m-277 104.2v-2.2c-0.6 1-0.9 1.9 0 2.2" fill="#FFFFFF" p-id="17997"></path><path d="M520.9 461.5v-2.2c-0.6 1-0.9 1.9 0 2.2m-14.5 7.9v-2.2c-0.6 1-0.9 1.9 0 2.2" fill="#C21124" p-id="17998"></path><path d="M426.1 640c-2.6-1.4-4.7-4.6-9.2-1.9l2.5-5.2c-6.2 1.2-1.6 5.1-3.8 7.4l3.3-2.3c1.3 1.5 4.9 1.8 7.2 2m-253.8-41.5c0.4-0.2 0.7-0.3 1-0.6h-0.5l-0.5 0.6z m110.1 56.9c-3.5-0.4-4.2 3.8-5.5 4.2-1.7 0.9-0.3 1.4-0.5 2.8 2-0.1 3.3-4.9 6-7m8.7 12.4c1.4-0.4 3.3-0.6 4.3-1.1v-4.8c-0.8 0.1-1.9-0.7-3.3 0.2-1.5 1.8-5.2 5.1-1 5.7m556-224.3l-0.4-1.6 0.1 0.1 0.1 0.1 0.6 0.5c1.2-0.3 2.8-0.9 4.5-1.6 0.8-0.3 1.7-0.7 2.6-1l0.2-0.1c-0.2-0.7 0.5 1.9 1.2 4.6 1.2 0.2 2.2 0.7 1.9 1.8-0.4 0.1-0.9 0.2-1.3 0.4 0.6 2.4 1 3.8 0.2 0.8h0.1l0.3-0.2 0.7-0.3 1.4-0.6c1.8-0.7 3.6-1.2 5.3-1.3h0.5c0.2 0.8-0.7-2.6-1.4-5.4-2.4-0.1-4.8-0.1-7.3-0.1-4.8 0-9.4 0.3-13.7 0.8 0.7 1 1.3 2.1 1.9 3.3 0.3 0 0.7 0 1-0.1 0.6 0.1 1 0 1.5-0.1M299.7 656.6c-1.1-4-2.7-7.6-4.9-10.9-1.2 3.8 1.9 7.4 4.9 10.9M272.9 703c1.2-0.9 4.2-0.7 3.5-3.1l4.8 1v-3.4l-3.5-0.2 3.5-1-0.1-9v-0.8c-2.8 4.2-7.6 3.4-10.1 8.5 4.7 2.3 2.5-2.9 6.2-1.7-5.1 2.7-2.1 7.4-4.3 9.7" fill="#FFFFFF" p-id="17999"></path><path d="M511.8 512.3c5.8-1.7-6.5-2.5-0.7-6.1l-4.4 0.8c2.3 1.5 0.8 4.3 5.1 5.3m-120.4-2.7c-0.1-0.9 0-0.5 0 0M160 559.8v4.3c-2.9-6.5-6.5 1.5-10.9 0.4l5.1-5.8c-1.5-2.2-6.5 1.5-6.5-2.8l-7.3 8.5 6.5-0.4 1.4 7.5c2.9-4.3 3.6 0.5 5.8 2.2 3.1-4.4 17.5-8.4 5.9-13.9m575.3-86.5v4.3c-2.9-6.5-6.5 1.5-10.9 0.4l5.1-5.8c-1.5-2.2-6.5 1.5-6.5-2.8l-7.3 8.5 6.5-0.4 1.4 7.5c2.9-4.3 3.6 0.5 5.8 2.2 3-4.4 17.4-8.4 5.9-13.9m-343.9 36.4c0-0.1 0-0.1 0 0m-70.5-13.1l4.5-0.5c-1.6-0.4-3.1-0.2-4.5 0.5m70.5 13c0 1.2 0 0.6 0 0" fill="#FCFDFD" p-id="18000"></path><path d="M391.4 509.6c0-0.9-0.1-2.8-0.3-6.6l-0.1 0.1-0.2 0.2-0.4 0.5-0.8 0.9-1.7 1.8c0.4-1.6-1.2-1.7-3-1.7v3.5l6.5 1.3z m-82.6-9.7c1.4 0 5.1 2.8 4.3-1.1-1.4 0.1-3.6-0.5-4.3 1.1M440.9 468c-0.9 0.2-1.8 0.4-2.6 0.6 1 0.1 1.9-0.1 2.6-0.6m-12.9-4.4c2.9-1.8 3.6-1.3 0.1-3.9l-0.1 3.9z m59.7 90.2c0.5-0.3 1-0.6 1.5-0.8-0.8-0.1-1.2 0.3-1.5 0.8m-34-75.5c0-0.1-0.1-0.2-0.2-0.2l0.2 0.2z m172.6-117.5c-5.9-0.8-8.1-2.2-11.4 2.5 8.7 0.6-6.3 3.8 1.8 6l1.9-4.6c5.1 0.3 13.2 3.5 15.2-0.1-5.5 0.2-4.8-4.3-4.8-7.3-1.4 0.9-2.8 1.9-2.7 3.5m-104.8 97c0.3-0.4 0.6-0.7 0.7-0.9-0.2 0.3-0.5 0.6-0.7 0.9m-235.2 52.5c-1.3-2.2 0.8-3.4 2.7-4.7-3.6 0.9-6.4 1.9-2.7 4.7M347 502l0.1-9.5c-4.3 1.2-5 0.7-3.8-2.4-6.6 2.3-2.2 6.8-1.7 9.8 0.2-0.3 0.5-0.5 0.8-0.7l4.6 2.8z m-55.6 8.9l2.9-0.9-5.1-1.7z m62.4-21.4c4.3-2.8 2.2-5.4 0.8-8.5-6.5 0.3 1.4 6-0.8 8.5" fill="#FCFDFD" p-id="18001"></path><path d="M339.4 493.3c-0.1 0.2-0.1 0.5-0.1 0.7 0-0.3 0.1-0.5 0.1-0.7m256.3 31.8l4.5-0.5c-1.7-0.3-3.1-0.1-4.5 0.5m26.1 5.5l0.1-9.5c-4.3 1.2-5 0.7-3.8-2.4-6.6 2.3-2.2 6.8-1.7 9.8 0.2-0.3 0.5-0.5 0.8-0.7l4.6 2.8z m6.7-12.6c4.3-2.8 2.2-5.4 0.8-8.5-6.4 0.3 1.4 6.1-0.8 8.5" fill="#FCFDFD" p-id="18002"></path><path d="M614.1 521.8c-0.1 0.2-0.1 0.5-0.1 0.7 0.1-0.2 0.1-0.4 0.1-0.7m186.7-239l7.1-1.3c-0.1-2-8.8-2.5-7.1 1.3M219.5 560.4l5.6-2.2-4.2 1.2z m-11.7-1.4c0.4 4.8 2-2.5 3.8 2.2l-0.3-3.9c-2.9-0.7-2.9 0.2-3.5 1.7m8.6 9.7c0.6 0 1 0 1.4-0.2-0.4 0-0.8 0-1.4 0.2m322.2-41v-0.2c-3.5 0.2-1.9 0.4 0 0.2m0 0c0 0.1 0 0.1 0.1 0.2l0.6-0.3c-0.3 0-0.5 0-0.7 0.1m0.6-0.1c0.6-0.1 1.2-0.3 1.5-0.5-0.6 0.1-1.1 0.3-1.5 0.5m-248.5-22.3v-1c-0.4 0.5-1 0.9-1.6 1.3 0.5-0.1 1.1-0.2 1.6-0.3m217.4-55.5c1.1-0.6 2.2-1.2 3.2-1.8-1.1-2.6-2.3-5.2-3.4-7.8-0.2 0-0.3 0-0.5 0.1-0.1 5.8-2.2 1.4-3.8 6.1l5.1-1.2-8.8 5.4c2.5-0.3 5.4-0.7 8.2-0.8m-56.8 199.9c0.3 0.9 0.6 1.8 1 2.8 0.1-0.5 0.4-1.2 1.1-2.3-0.9-0.3-1.5-0.4-2.1-0.5m-1.4-4c0.1 0.2 0.2 0.5 0.3 0.7 0.2-0.3 0.3-0.6 0.4-1-0.3 0.2-0.5 0.2-0.7 0.3m-129-140.5l-1.9 4.6c0 0.8 0.1 1.5 0.1 2.2l0.9 1.8c0.3-0.1 0.7-0.3 1-0.4l2.5-4.9-0.6 2.5c0.3 0.5 0.7 0.8 1.2 1.1 0.7-0.3 1.3-0.6 2-0.9-0.5-1.2-0.9-2.4-1.3-3.6-0.2-0.6-0.3-1.1-0.5-1.6-1.1-0.1-2.1-0.3-3.1-0.6l-0.3-0.2z m33.1 7.1c0 0.5 0 0.4 0 0m-78.7 5.4c-0.5-1.5-1.1-2.9-1.6-4.3-0.4 0.3-1.2 0.7-2.5 1-0.9-2-1.7-4.1-2.5-6.2l-4.9 3.5c0.8 1.8 0.3 5.9 0.9 10.2 3.9-1.5 7.6-2.9 10.6-4.2m160.4 10.5c-12.6 5.2-25.3 10.6-36.3 15.5 1.8 4.4 3.4 8.7 5.2 13.2 0.9-0.8 1.8-1.5 2.8-2.1-1.4-0.1-2.9-0.1-2.9-1.1 5.1-1.2 12.2 3 15.3-3.7l-2.9-0.2 5.9-1.7c-0.8 2.4 2.1 0.6 3.5 3.6 1.5-0.9 4.4-1.8 4.4-3.7 0.1-3-4.3-3.2-6.4-3.8 6.6-1.2 5.2-6.2 6.8-8.1l2.1 2.5c0.8-1.4 4.4-1.8 3.7-4.3-1.4 0-3.6 0.3-5-0.7 0.2-2.2 1.8-3.9 3.8-5.4" fill="#FCFDFD" p-id="18003"></path><path d="M266.4 509.5c1.2 0.3 2.2 0.1 3.1 0 0.3-0.2 0.7-0.3 1.3-0.3 2.2-1.3 4.3-2.7 6.4-4.2-4.3-1.1-10.8 1.8-10.8 4.5m402.3-85.8c1.2 0.3 2.2 0.1 3.1 0 0.3-0.2 0.7-0.3 1.3-0.3 2.2-1.3 4.3-2.7 6.4-4.2-4.3-1.1-10.7 1.8-10.8 4.5m-212.6 69.4c0.6-0.3 1.2-0.7 1.8-1-0.4 0.1-0.8 0.1-1.2 0.2-0.3 0.2-0.5 0.5-0.6 0.8m-4.5 2.5c0.4-0.2 0.7-0.4 1.1-0.6-0.4-0.1-0.8-0.3-1.3-0.5 0.1 0.4 0.2 0.7 0.2 1.1" fill="#FCFDFD" p-id="18004"></path></svg>