<?xml version="1.0" standalone="no"?><!DOCTYPE svg PUBLIC "-//W3C//DTD SVG 1.1//EN" "http://www.w3.org/Graphics/SVG/1.1/DTD/svg11.dtd"><svg t="1717126989231" class="icon" viewBox="0 0 1744 1024" version="1.1" xmlns="http://www.w3.org/2000/svg" p-id="9415" xmlns:xlink="http://www.w3.org/1999/xlink" width="109" height="64"><path d="M1538.295166 2.981077H183.395602C85.020056 2.981077 4.530973 83.47016 4.530973 181.845706v502.311499c0 98.375546 80.489083 178.864629 178.864629 178.864629h1113.432315l137.129548 152.034935V863.021834h104.337701c98.375546 0 178.864629-80.489083 178.864628-178.864629V181.845706c0-98.375546-80.489083-178.864629-178.864628-178.864629z" fill="#FFFFFF" p-id="9416"></path><path d="M1438.429081 1024l-143.091703-157.997089H183.395602C82.038979 866.002911 0.059358 784.02329 0.059358 682.666667V181.845706C0.059358 80.489083 82.038979 0 183.395602 0h1354.899564c101.356623 0 183.336245 81.979622 183.336244 183.336245v502.311499c0 101.356623-81.979622 183.336245-183.336244 183.336244h-99.866085v155.016012zM183.395602 7.452693C86.510595 7.452693 9.002589 84.960699 9.002589 181.845706v502.311499c0 96.885007 78.998544 175.883552 175.883552 175.883552h1114.922853l1.490538 1.490538 131.167395 144.582242v-146.07278h107.318777c96.885007 0 175.883552-78.998544 175.883552-175.883552V181.845706c0-96.885007-78.998544-175.883552-175.883552-175.883552H183.395602z" p-id="9417"></path></svg>