<?xml version="1.0" standalone="no"?><!DOCTYPE svg PUBLIC "-//W3C//DTD SVG 1.1//EN" "http://www.w3.org/Graphics/SVG/1.1/DTD/svg11.dtd"><svg t="1716636165116" class="icon" viewBox="0 0 1024 1024" version="1.1" xmlns="http://www.w3.org/2000/svg" p-id="1539" xmlns:xlink="http://www.w3.org/1999/xlink" width="64" height="64"><path d="M210.245 184.94h-150c-19.45 0-34.94 16.5-34.94 36.62v765.82c0 20.13 15.49 36.62 34.94 36.62h150c19.45 0 34.94-16.5 34.94-36.62V221.56c0-20.12-15.49-36.62-34.94-36.62z m-2 81.81c0 20.3-15.78 36.94-34.85 36.94H99.075c-19.06 0-34.85-16.64-34.85-36.94v-4c0-20.3 15.78-36.94 34.85-36.94h74.29c19.07 0 34.85 16.64 34.85 36.94zM498.265 0H350.125c-19.43 0-34.9 16.52-34.9 36.67v950.66c0 20.15 15.47 36.67 34.9 36.67h148.14c19.09 0 34.89-16.52 34.89-36.67V36.67c0-20.15-15.8-36.67-34.89-36.67z m3.76 82.14c0 20.12-15.91 36.61-35.13 36.61h-79.56c-19.22 0-35.13-16.49-35.13-36.61v-6.59c0-20.12 15.91-36.61 35.13-36.61h79.54c19.22 0 35.13 16.49 35.13 36.61zM996.975 920.22L769.875 191a34.73 34.73 0 0 0-17.17-20.81c-8.25-4.62-17.83-5.29-27.07-2.64l-142.94 48.86c-18.15 6.27-28.39 26.75-22.45 45.9l227.12 729.25a36.27 36.27 0 0 0 17.16 21.13 35.05 35.05 0 0 0 27.07 2.31l142.94-48.88c18.48-5.94 28.34-26.75 22.44-45.9zM725.295 294l-70.64 24.11c-18.49 6.28-38.3-4.29-44.24-23.45l-1.32-4c-5.94-19.16 4-40 22.45-45.91l71-24.11a33.72 33.72 0 0 1 27.05 2.36 34.43 34.43 0 0 1 17.16 21.14l1 4c5.93 19.13-3.97 39.93-22.46 45.86z" fill="#2c2c2c" p-id="1540"></path></svg>