<?xml version="1.0" standalone="no"?><!DOCTYPE svg PUBLIC "-//W3C//DTD SVG 1.1//EN" "http://www.w3.org/Graphics/SVG/1.1/DTD/svg11.dtd"><svg t="1717837400156" class="icon" viewBox="0 0 1024 1024" version="1.1" xmlns="http://www.w3.org/2000/svg" p-id="13388" xmlns:xlink="http://www.w3.org/1999/xlink" width="64" height="64"><path d="M978.221 507.167L508.484 67.964 38.747 505.877c-9.189 8.567-9.702 22.975-1.114 32.155 8.579 9.173 23.004 9.692 32.187 1.105l438.629-408.894 438.649 410.139a22.716 22.716 0 0 0 15.563 6.144c6.07 0 12.143-2.411 16.623-7.209 8.596-9.173 8.123-23.568-1.065-32.149z m0 0z" fill="#e6e6e6" p-id="13389"></path><path d="M834.88 516.187c-12.573 0-22.772 10.193-22.772 22.75v348.839H629.923v-242.67h-242.91v242.67H204.835V538.937c0-12.557-10.189-22.75-22.771-22.75-12.59 0-22.777 10.193-22.777 22.75v394.338h273.275V690.606h151.819v242.669h273.268V538.937c0.001-12.557-10.201-22.75-22.768-22.75z m0 0zM675.472 190.101h136.635v121.332c0 12.576 10.201 22.755 22.772 22.755 12.569 0 22.769-10.179 22.769-22.755V144.602H675.471c-12.576 0-22.777 10.174-22.777 22.75-0.001 12.572 10.201 22.75 22.777 22.75z m0 0z" fill="#e6e6e6" p-id="13390"></path></svg>