<?xml version="1.0" standalone="no"?><!DOCTYPE svg PUBLIC "-//W3C//DTD SVG 1.1//EN" "http://www.w3.org/Graphics/SVG/1.1/DTD/svg11.dtd"><svg t="1716652723887" class="icon" viewBox="0 0 1024 1024" version="1.1" xmlns="http://www.w3.org/2000/svg" p-id="2704" xmlns:xlink="http://www.w3.org/1999/xlink" width="64" height="64"><path d="M1002.709333 371.841219L851.709562 133.751467c-13.185219-20.7616-40.738133-26.904381-61.561905-13.833753L36.551924 596.655543c-20.766476 13.185219-26.904381 40.738133-13.861791 61.442438L173.689905 896.21821c13.186438 20.709181 40.738133 26.847086 61.505828 13.777676l753.623772-476.704915c20.823771-13.192533 27.079924-40.711314 13.889828-61.449752z m-30.076343 35.861943L219.009219 884.470248c-6.665752 4.199619-15.390476 2.233295-19.590095-4.404419L48.419352 641.946819c-4.200838-6.666971-2.233295-15.362438 4.432458-19.619352l753.653028-476.737829c6.671848-4.171581 15.42339-2.200381 19.562057 4.437333l151.061943 238.115353c4.052114 6.523124 2.056533 15.275886-4.495848 19.560838zM322.985448 256.618057l12.514742 30.014172 16.214553-28.166096 32.394971-2.614857-21.82339-24.143238 7.432533-31.575771-29.609447 13.309562-27.813791-16.833829 3.523048 32.338895-24.671086 21.033448 31.837867 6.637714z m191.885409-89.352533l-15.567238-28.575695-13.185219 29.752076-32.014629 6.109866 24.171277 21.675886-4.171581 32.219429 28.195352-16.301105 29.404648 13.953219-6.785219-31.837867 22.290285-23.61539-32.337676-3.380419z m292.548267 478.676114l-25.762134-19.799771-0.11459 32.457143-26.904381 18.243047 30.985752 10.220495 9.133105 31.161296 19.209753-26.229029 32.514438 0.910629-19.090286-26.372877 11.014095-30.461561-30.985752 9.870628zM702.266514 775.350857l-12.275809-30.104381-16.481524 28.052724-32.366933 2.349105 21.61859 24.260266-7.695848 31.542858 29.781334-13.009677 27.700419 17.209296-3.262172-32.366934 24.671086-21.000533-31.689143-6.932724z m-192.624152 88.00061l15.424609 28.695162 13.452191-29.666743 32.014628-5.723429-24.028647-21.914819 4.409295-32.190171-28.314819 16.009752-29.257143-14.1568 6.519467 31.775695-22.614553 23.530057 32.394972 3.641296zM221.09501 382.417676l25.614628 20.119162 0.380343-32.485181 27.023848-18.152838-30.813867-10.428952-8.900267-31.3088-19.44259 26.052266-32.514438-1.176381 18.82819 26.494781-11.223771 30.548115 31.047924-9.662172zM106.691048 522.665448c-3.4048-137.519543 63.47581-273.481143 188.071009-352.285258 124.623238-78.805333 276.124038-81.038629 399.190553-19.295085l29.724038-18.800153c-36.419048-20.353219-75.600457-35.247543-116.866438-44.500114-55.133867-12.395276-111.290514-13.948343-166.805943-4.814019-57.480533 9.513448-111.818362 30.251886-161.456762 61.70941-49.609143 31.456305-91.671162 71.637333-124.862172 119.514209-32.132876 46.171429-54.718171 97.604267-67.142704 152.646705-9.252571 41.205029-12.542781 82.972038-9.662172 124.596419l29.810591-18.772114z m809.285485-21.028572c3.552305 137.519543-63.328305 273.481143-187.923504 352.257219-124.5952 78.890667-276.122819 81.066667-399.162515 19.324343l-29.781333 18.828191c36.419048 20.294705 75.628495 35.220724 116.900571 44.470857 55.127771 12.395276 111.285638 14.010514 166.799848 4.814019 57.480533-9.514667 111.819581-30.223848 161.428724-61.681372s91.671162-71.638552 124.890209-119.486171c32.014629-46.228724 54.599924-97.628648 66.9952-152.643048 9.28061-41.237943 12.514743-83.03299 9.632915-124.656152l-29.780115 18.772114zM384.637562 312.189562c34.895238-22.02819 73.281829-33.781029 111.819581-36.128914l45.994667-29.080381c-60.771962-7.166781-121.628038 6.523124-174.143391 39.684876-52.371505 33.128838-90.761752 82.328381-110.2336 140.247771l45.966629-29.075504c18.681905-33.95779 45.73501-63.562362 80.596114-85.647848zM638.147048 712.084724c-34.895238 22.090362-73.252571 33.838324-111.790324 36.186209l-45.967848 29.080381c60.743924 7.166781 121.571962-6.552381 174.115353-39.714133 52.371505-33.099581 90.761752-82.328381 110.204342-140.247771l-45.93859 29.137676c-18.679467 33.80541-45.76061 63.529448-80.622933 85.557638z m-338.951315-63.914667" p-id="2705"></path><path d="M327.938438 771.590095c-14.961371-24.672305-34.462476-55.781181-58.538667-93.319314-2.991543 48.655848-19.375543 94.215314-49.136152 136.672305l-3.456-1.287315c24.797867-44.715886 36.742095-91.717486 35.838781-140.998704l-54.985143 35.267047c-8.082286 5.18339-15.007695 10.793448-20.77379 16.831391l-13.168153-2.0736 95.060115-60.969448-26.016915-40.563809-40.074971 25.7024c-8.082286 5.18339-15.007695 10.793448-20.77501 16.830171l-13.165714-2.071162 70.829105-45.429028c-4.248381-6.624305-13.064533-19.664457-26.420419-39.139962l30.602971-5.607619-5.602743 11.772342 15.39901 24.007924 41.006324-26.299733 5.613714-19.959467 29.259581 4.603124-72.693029 46.623695 26.548419 41.392762 61.509486-39.450819 6.016-21.383314 30.722438 4.831086-86.673066 55.591009c44.834133 23.441067 90.45699 26.895848 136.866133 10.365562l2.123581 3.312152c-10.571581 6.780343-15.400229 14.954057-14.532267 24.508953-50.369829 3.497448-93.105981-8.43581-128.185295-35.794895l-4.6592 2.987885c31.511162 49.130057 52.342248 80.936229 62.52739 95.4368l-11.066514 17.611581z" p-id="2706"></path><path d="M222.551771 822.300038l-14.510323-5.402819 3.436495-6.196419c22.292724-40.198095 34.062629-82.830629 35.052495-126.878476l-45.578971 29.232762c-7.639771 4.900571-14.253105 10.25219-19.657143 15.90979l-2.204038 2.308876-32.159696-5.065142 103.427658-66.335696-19.435277-30.301866-34.944 22.41219c-7.638552 4.899352-14.251886 10.250971-19.658361 15.909791l-2.204039 2.306438-32.160914-5.059048 79.1552-50.768457c-4.743314-7.164343-12.32579-18.344229-22.981486-33.880991l-5.313828-7.749485 51.57059-9.448838-9.269638 19.477942 10.27901 16.0256 33.926095-21.75878 6.452419-22.942477 50.452724 7.938438-81.06301 51.992381 19.966781 31.130819 54.428038-34.909866 6.854705-24.365105 51.915581 8.162743-91.0592 58.404571c22.2208 10.118095 44.809752 15.240533 67.285333 15.240534 18.135771 0 36.6848-3.330438 55.128991-9.901105l4.561676-1.624991 8.027429 12.519619-5.129753 3.29021c-8.560152 5.489371-12.40381 11.648-11.752838 18.826971l0.5632 6.200077-6.211047 0.431542c-5.818514 0.403505-11.623619 0.608305-17.253181 0.608305-38.167162 0.002438-72.187124-9.401295-101.372343-27.9808 26.15101 40.644267 43.913752 67.662019 52.873752 80.418134l2.328381 3.315809-18.473448 29.403429-5.12-8.443124c-13.038933-21.501562-29.469257-47.792762-48.944761-78.318934-5.607619 43.04579-21.890438 84.009448-48.526629 122.01082l-2.702629 3.854628z m44.648839-158.746819l7.328914 11.427352c21.141943 32.961829 39.100952 61.509486 53.488152 85.024915l3.679086-5.856305c-10.860495-15.736686-30.62979-45.978819-60.246552-92.153905l-50.2528-78.350628 1.935847-4.067962-9.642667 1.7664c10.691048 15.634286 17.466514 25.709714 21.111467 31.383162l0.0768 0.121904 0.026819 0.041448 3.185372 4.967619 29.309562 45.696z m-8.5248 5.467429l0.064609 3.526704c0.39741 21.7088-1.684724 43.099429-6.219581 64.073143a247.771429 247.771429 0 0 0 10.794667-58.721524l0.759466-12.3392-5.399161 3.460877z m75.652876 8.017676c17.969981 5.859962 37.400381 8.811276 58.159543 8.810057 3.555962 0 7.187505-0.085333 10.848304-0.257219 0.497371-4.002133 1.85661-7.771429 4.072838-11.294476-14.34941 3.708343-28.704914 5.5808-42.855619 5.5808-10.079086 0-20.165486-0.948419-30.225066-2.839162z m10.887314-77.436343l-2.612419 9.284267L354.742857 601.10019l-9.526857-1.498209z m-50.639238-31.784229l-2.211352 7.860419 10.27779-6.59139-8.066438-1.269029z" fill="#040000" p-id="2707"></path><path d="M558.729752 475.17379c1.9968 29.098667 0.280381 57.857219-5.169981 86.274439 38.665752 0.137752 76.942629-11.961295 114.847696-36.271543l2.123581 3.312152c-8.884419 8.033524-11.951543 16.229181-9.212343 24.602819-43.746743 17.926095-81.1776 25.192838-112.298667 21.7856-16.643657 41.055086-44.052724 76.925562-82.219886 107.650438l-2.524647-1.887085c33.205638-32.981333 56.450438-68.520229 69.713676-106.639848-27.488305-7.288686-53.052952-20.487314-76.701257-39.606857l-8.388267 5.379657-10.120533 8.830781-11.704076-1.8432 65.237333-41.841372-22.831543-35.597409-64.304762 41.244038c-8.082286 5.182171-15.006476 10.792229-20.775009 16.828952l-13.165715-2.071162 95.060115-60.969447c-12.386743-19.313371-21.02979-32.081676-25.887696-38.312229l29.138896-5.838019-4.670172 11.17501 15.397791 24.007924 65.238552-41.841372 6.014781-21.384533 30.722438 4.833524-98.787962 63.361219 22.831543 35.597409 32.618057-20.921295 3.078095-13.65821 22.876648 2.853791-6.136686 10.945828z m-20.731123 84.57021c5.343086-19.001295 6.709638-45.583848 4.096-79.745219l-80.148724 51.406019c26.409448 16.564419 51.74979 26.015695 76.052724 28.3392z" p-id="2708"></path><path d="M466.939124 690.23939l-11.971048-8.94659 5.012724-4.97859c30.623695-30.415238 52.816457-63.435581 66.039467-98.236953-24.497981-7.38499-47.696457-19.536457-69.10781-36.202057l-4.343467 2.785524-11.925942 10.407009-30.355505-4.781104 73.603657-47.207619-16.251124-25.336686-59.175009 37.952609c-7.637333 4.898133-14.250667 10.249752-19.658362 15.909791l-2.204038 2.306438-32.160915-5.059048 103.421562-66.333257c-10.426514-16.142629-17.90659-27.139657-22.265904-32.72899l-6.070858-7.784838 50.06141-10.030324-7.8592 18.805028 10.381409 16.186515 58.158324-37.300419 6.853486-24.366324 51.915581 8.167619-107.157943 68.728686 16.251124 25.336685 25.38179-16.279162 3.743696-16.610743 37.356495 4.66042-9.681676 17.273904c1.671314 26.396038 0.3072 52.809143-4.055772 78.650515 34.864762-1.336076 69.898971-13.154743 104.241981-35.180496l5.130972-3.290209 8.202971 12.790247-3.831467 3.464534c-9.308648 8.415086-8.74179 14.409143-7.506895 18.185752l1.761524 5.386972-5.244343 2.149181c-37.333333 15.297829-70.716952 23.054629-99.224381 23.055847-3.886324 0-7.732419-0.143848-11.48099-0.429105-17.116648 40.100571-44.789029 75.716267-82.302781 105.915734l-3.682743 2.963504z m51.262171-127.651352a187.153067 187.153067 0 0 0 17.348267 5.519848l6.354895 1.685943-2.158933 6.209828a247.217981 247.217981 0 0 1-10.886095 26.254629 237.659429 237.659429 0 0 0 14.511542-29.672838l1.731048-4.270324 4.581181 0.501028c4.726248 0.518095 9.679238 0.78019 14.721219 0.780191 25.746286 0 55.988419-6.818133 89.955962-20.272762a24.237105 24.237105 0 0 1 1.017905-9.312305c-33.327543 18.280838-67.280457 27.53219-101.160229 27.532191h-0.003657l-8.02499-0.026819 1.384838-7.217981c5.319924-27.73821 7.029029-56.238324 5.074895-84.707962l-0.124343-1.812724 2.590476-4.623848-8.3968-1.047162-0.443733 1.9712 1.119086-0.718019 0.778971 10.175391c2.656305 34.7136 1.205638 62.255543-4.305676 81.860267l-1.378743 4.90179-5.0688-0.483962a141.252267 141.252267 0 0 1-19.218286-3.2256z m-44.698819-31.353905c20.670171 11.850362 40.762514 19.1744 59.900343 21.834362 3.587657-15.823238 4.692114-36.736 3.288991-62.364038l-63.189334 40.529676z m1.212953-65.039847l22.621866 35.270704 3.719315-2.385676-22.623086-35.271924-20.414172-31.830552 1.481143-3.54499-8.5504 1.712762c5.079771 7.250895 11.930819 17.595733 20.475124 30.917485l3.29021 5.132191z m81.210514-67.170743l-2.612419 9.286705 12.141714-7.787277-9.529295-1.499428z" fill="#040000" p-id="2709"></path><path d="M746.91901 504.029867c-16.727771-27.427352-27.914971-45.574095-33.582324-54.408534l-44.07101-68.712838c-0.930133 28.639086-4.514133 53.138286-10.741028 73.489067l-3.858286 0.137752c3.230476-27.777219 3.633981-54.126933 1.237333-79.077181-2.405181-24.930743-7.314286-51.395048-14.726095-79.357562l27.406629-2.386895-5.733181 9.519543c2.362514 24.189562 4.142324 44.079543 5.373562 59.648l15.831771-1.976076-3.337752 9.15139 54.161066 84.443429c9.914514 15.458743 17.47139 26.566705 22.702324 33.345828l-10.663009 16.184077z m68.608-75.551696c16.321829-7.365486 27.036038-12.867048 32.146285-16.529066 5.089524-3.665676 5.889219-8.249295 2.346667-13.771581L783.11619 293.866057l-57.781638 37.060267c-8.081067 5.18339-15.006476 10.793448-20.77379 16.827733l-13.166933-2.069943 88.53699-56.785676c-14.867505-23.18019-27.044571-41.45981-36.508038-54.870552l30.602971-5.6064-5.602742 11.772343 25.487847 39.738514 13.978819-8.966095 4.811581-17.106896 26.333867 4.142324-41.937676 26.898286 71.682438 111.762286c5.74659 10.336305 3.643733 21.41379-6.296381 33.248304-9.0368-5.886781-23.989638-5.26141-44.830476 1.879772l-2.126019-3.312153z m-88.643048-62.326247l0.802133-2.850134c15.787886 0.004876 29.126705 0.999619 40.035962 2.947658 10.901943 1.972419 17.081295 5.803886 18.541714 11.477333 1.451886 5.692952 1.606705 9.685333 0.44861 11.979581-1.150781 2.307657-2.055314 3.653486-2.667276 4.046019-3.117105 1.999238-8.064-0.266971-14.888229-6.807162-9.130667-7.380114-23.220419-14.317714-42.272914-20.793295z" p-id="2710"></path><path d="M746.720305 515.410895l-5.004191-8.206628c-17.111771-28.056381-28.072229-45.815467-33.509181-54.291505l-33.898057-52.85181c-1.687162 21.180952-5.021257 39.995733-9.954743 56.120077l-1.270247 4.153295-15.290515 0.544914 0.8192-7.048533c3.16221-27.17501 3.573029-53.347962 1.223924-77.791086-2.362514-24.496762-7.25821-50.868419-14.550552-78.377448l-1.85661-7.005866 46.55421-4.055772-10.870248 18.046781c1.915124 19.694933 3.484038 36.938362 4.675048 51.395048l19.414552-2.423467-5.722209 15.686705 52.5312 81.901714c9.799924 15.279543 17.336076 26.353371 22.396343 32.911848l2.658742 3.443809-18.346666 27.847924z m-77.886172-146.463695l49.633524 77.383924c5.006629 7.806781 14.173867 22.627962 28.647619 46.321371l3.017143-4.578743c-5.104152-6.95101-11.810133-16.917943-20.383695-30.2848l-55.790934-86.983923 0.953296-2.616077-6.076953 0.758248z m-19.952152-67.399924c6.465829 25.629257 10.864152 50.261333 13.087695 73.324495 0.387657 4.036267 0.70339 8.118857 0.945981 12.241677 0.101181-2.11139 0.186514-4.245943 0.257219-6.402438l0.359619-11.103086-0.88259 0.109714-0.502248-6.357333c-1.269029-16.047543-3.073219-36.078933-5.363809-59.535848l-0.196267-2.007771 0.597333-0.991086-8.302933 0.721676z m166.2208 137.558553l-8.517486-13.279086 6.435353-2.903772c15.903695-7.176533 26.369219-12.535467 31.104-15.928076 2.13699-1.538438 2.761143-2.417371 0.766781-5.525943l-63.614781-99.181714-52.650667 33.768838c-7.637333 4.899352-14.250667 10.250971-19.658362 15.908572l-2.202819 2.305219-32.163352-5.05661 96.902095-62.151924c-13.165714-20.431238-24.274895-37.071238-33.060572-49.518933l-5.499123-7.792152 51.705904-9.473219-9.268419 19.476723 20.367848 31.756191 6.89859-4.425143 5.651505-20.089905 47.525791 7.476419-50.308877 32.266972 68.495848 106.793447 0.092648 0.16701c4.860343 8.74301 7.598324 22.802286-6.955886 40.131047l-3.471848 4.132572-4.522666-2.946438c-7.226514-4.705524-20.918857-3.838781-39.528838 2.538057l-4.522667 1.551848z m31.575771-19.281677c5.271162 0.007314 9.97181 0.80701 14.039772 2.385677 7.453257-10.752 5.323581-17.852952 2.820876-22.426819l-102.075733-159.149105 1.937066-4.067962-9.562209 1.751771c8.679619 12.609829 19.151238 28.469638 31.223466 47.290515l70.089143 109.280304c5.271162 8.2176 3.808305 16.446171-3.915581 22.008686-1.239771 0.887467-2.755048 1.861486-4.5568 2.926933z m-29.576533-159.104l-1.408 5.010286 6.548724-4.200838-5.140724-0.809448z m-35.548648 139.829638c-4.734781 0-9.955962-2.8672-16.418133-9.018514-8.555276-6.849829-22.083048-13.446095-40.212724-19.608381l-5.471085-1.859047 3.620571-12.858515 4.617752 0.001219c16 0.004876 29.830095 1.028876 41.105067 3.042743 13.411962 2.425905 21.271162 7.79459 23.3728 15.958553 1.877333 7.355733 1.871238 12.514743-0.013409 16.246247-1.759086 3.527924-3.114667 5.33821-4.817677 6.430476-1.724952 1.104457-3.669333 1.665219-5.783162 1.665219z m-27.463923-29.993447c7.599543 3.713219 13.86301 7.5776 18.900114 11.648l0.386438 0.340114c3.844876 3.685181 6.168381 5.038324 7.314286 5.533257 0.162133-0.296229 0.351086-0.657067 0.569295-1.092266 0.015848-0.045105 0.624152-1.773714-0.900876-7.750705-0.771657-2.997638-5.77341-5.549105-13.720381-6.986362-3.849752-0.687543-8.039619-1.251962-12.548876-1.692038z" fill="#040000" p-id="2711"></path></svg>