<?xml version="1.0" standalone="no"?><!DOCTYPE svg PUBLIC "-//W3C//DTD SVG 1.1//EN" "http://www.w3.org/Graphics/SVG/1.1/DTD/svg11.dtd"><svg t="1716294191000" class="icon" viewBox="0 0 4736 1024" version="1.1" xmlns="http://www.w3.org/2000/svg" p-id="7946" xmlns:xlink="http://www.w3.org/1999/xlink" width="296" height="64"><path d="M1053.44 949.76l17.92-134.4h-389.12l30.72-217.6h340.48l19.2-134.4h-341.76l29.44-206.08h366.08l17.92-134.4h-364.8l10.24-72.96H497.92l42.24 46.08-3.84 26.88h-364.8l-17.92 134.4h363.52l-29.44 206.08h-339.2l-19.2 134.4h340.48l-30.72 217.6H49.92l-17.92 134.4h1021.44zM1882.88 633.6l26.88-24.32 35.84-254.72h218.88l-35.84 254.72 21.76 24.32h107.52l52.48-376.32h-142.08l24.32-61.44h140.8l16.64-121.6h-510.72l-16.64 121.6h151.04l-24.32 61.44h-122.88l-52.48 376.32h108.8z m-120.32-181.76l52.48-377.6h-486.4l42.24 48.64-46.08 328.96h437.76z m-151.04-231.68h-74.24l7.68-48.64h74.24l-7.68 48.64z m-17.92 133.12h-74.24l6.4-48.64H1600l-6.4 48.64z m313.6 450.56l90.88-89.6 55.04 89.6h194.56l-143.36-194.56 30.72-218.88H1964.8l-30.72 218.88-197.12 194.56h170.24z m344.32 145.92l16.64-121.6H1638.4l7.68-48.64h96l16.64-120.32h-96l6.4-49.92h70.4l17.92-121.6h-486.4l-17.92 121.6h234.24l-19.2 136.96-29.44-39.68h-2.56l20.48-71.68h-217.6l24.32 40.96-81.92 272.64h183.04l23.04-79.36 61.44 80.64h802.56z" fill="#333333" p-id="7947"></path><path d="M3047.68 682.24l52.48-140.8 107.52 43.52 20.48-145.92-78.08-32 60.16-162.56h69.12l-61.44 437.76h267.52l28.16-194.56-56.32 48.64h-24.32l58.88-413.44h-235.52L3283.2 49.92h-243.2l33.28 39.68-12.8 33.28H2956.8l-17.92 121.6h76.8l-34.56 94.72-52.48-21.76-20.48 145.92 23.04 8.96-78.08 209.92h194.56z m-378.88 0c23.872 0 45.44-8.32 64.64-24.96 19.2-16.64 30.912-37.312 35.2-62.08l17.92-125.44 99.84-17.92 17.92-134.4-98.56 16.64L2816 256h97.28l16.64-121.6h-96l11.52-84.48h-194.56l-12.8 84.48h-121.6L2499.84 256h121.6l-16.64 112.64-124.16 21.76-17.92 134.4 122.88-20.48-7.68 57.6-113.92 120.32h204.8z m264.96 289.28l-12.8-240.64h-218.88l12.8 240.64h218.88z m266.24 0l-12.8-240.64h-218.88l12.8 240.64H3200z m-606.72 0l83.2-240.64H2457.6l-83.2 240.64h218.88z m874.24 0l-12.8-240.64h-218.88l12.8 240.64h218.88z m346.88 0l90.88-643.84h101.12l17.92-121.6H3923.2l21.76-156.16h-193.28l25.6 37.12-16.64 119.04h-102.4l-17.92 121.6h102.4l-90.88 643.84h162.56zM4672 218.88l14.08-99.84h-203.52L4492.8 51.2h-235.52l40.96 48.64-2.56 19.2H4102.4l-14.08 99.84H4672zM4172.8 486.4l7.68-58.88h339.2l-7.68 58.88H4672l23.04-168.96h-117.76l37.12-72.96h-158.72l-38.4 72.96h-85.76l-16.64-72.96h-160l16.64 72.96H4038.4l-23.04 168.96h157.44z m-549.12 439.04l98.56-564.48h-75.52l-99.84 564.48h76.8z m320-72.96l48.64-491.52H3916.8l-49.92 491.52h76.8z m202.24 119.04l93.44-216.32h197.12l-16.64 121.6-78.08 83.2h179.2c16.192 0 31.168-5.568 44.8-16.64a60.288 60.288 0 0 0 23.04-42.24l34.56-243.2H4281.6l11.52-25.6h354.56L4664.32 512h-227.84l10.24-67.84h-202.24L4234.24 512H4006.4l-16.64 120.32h125.44l-147.2 339.2h177.92z" fill="#EC0E0E" p-id="7948"></path></svg>