<?xml version="1.0" standalone="no"?><!DOCTYPE svg PUBLIC "-//W3C//DTD SVG 1.1//EN" "http://www.w3.org/Graphics/SVG/1.1/DTD/svg11.dtd"><svg t="1717837257410" class="icon" viewBox="0 0 1024 1024" version="1.1" xmlns="http://www.w3.org/2000/svg" p-id="8307" xmlns:xlink="http://www.w3.org/1999/xlink" width="64" height="64"><path d="M428.544 540.444444a170.666667 170.666667 0 1 0 0-341.333333 170.666667 170.666667 0 0 0 0 341.333333z m0 56.888889a227.555556 227.555556 0 1 1 0-455.111111 227.555556 227.555556 0 0 1 0 455.111111z" fill="#e6e6e6" p-id="8308"></path><path d="M583.793778 610.076444a28.444444 28.444444 0 1 1-28.273778 49.379556A256 256 0 0 0 172.544 881.777778a28.444444 28.444444 0 0 1-56.888889 0 312.888889 312.888889 0 0 1 468.138667-271.701334zM711.111111 512h170.666667a28.444444 28.444444 0 0 1 0 56.888889h-170.666667a28.444444 28.444444 0 0 1 0-56.888889zM654.222222 682.666667h227.555556a28.444444 28.444444 0 0 1 0 56.888889h-227.555556a28.444444 28.444444 0 0 1 0-56.888889zM597.333333 853.333333h284.444445a28.444444 28.444444 0 0 1 0 56.888889h-284.444445a28.444444 28.444444 0 0 1 0-56.888889z" fill="#e6e6e6" p-id="8309"></path></svg>